<svg xmlns="http://www.w3.org/2000/svg" viewBox="0 0 94 131"><path d="M42 45.4L18.8 34.7l-10 10.7 10 10.7L42 45.4zm-28 1.8l4.9 3.7 8.2-1.3-8.2 3.6-4.9-6zm28 24.6L18.8 61.1l-10 10.7 10 10.7L42 71.8zm-28 2l4.9 3.7 8.2-1.3-8.2 3.6-4.9-6zm28 24.4L18.8 87.5l-10 10.7 10 10.7L42 98.2zM14 100l4.9 3.7 8.2-1.3-8.2 3.6-4.9-6zm33 .5l-23.7 10.9L47 122.3l23.7-10.9L47 100.5zm-16.5 10.9L47 116l16.8-4.7L47 119l-16.5-7.6zM52 98.2l23.2 10.7 10-10.7-10-10.7L52 98.2zm23.1 5.6l4.9-3.7-4.9 6-8.2-3.6 8.2 1.3zM47 63l16.8-4.7L47 65.9l-16.6-7.6L47 63zm0 6.5l23.7-10.9L47 47.7 23.3 58.6 47 69.5zM70.7 85L47 74.1 23.3 85 47 95.9 70.7 85zm-40.2.5L47 90.1l16.8-4.7L47 93.1l-16.5-7.6zM52 71.8l23.2 10.7 10-10.7-10-10.7L52 71.8zm23.1 5.7l4.9-3.7-4.9 6-8.2-3.6 8.2 1.3zm-8.2-27.9l8.2 1.3 4.9-3.7-4.9 6-8.2-3.6zM52 45.4l23.2 10.7 10-10.7-10-10.7L52 45.4zm-5-2.3l23.7-10.9L47 21.3 23.3 32.2 47 43.1zm-8.4-7.2l8.5 2.4 8.6-2.4-8.6 3.9-8.5-3.9zM52 19l23.2 10.7 10-10.7-10-10.7L52 19zm23.1 5.4l4.9-3.7-4.9 6-8.2-3.6 8.2 1.3zm-56.3 5.3L42 19 18.8 8.3 8.8 19l10 10.7zm-4.8-9l4.9 3.7 8.2-1.3-8.2 3.6-4.9-6zM27.8 7.9h38.4L47 16.7 27.8 7.9zm58.1 16.4v10.9l-4.3-2.9 4.3 4.5v3.3l-7.4-7.9 7.4-7.9zm0 26.4v10.7l-4.3-2.9 4.3 4.5v3.5l-7.4-7.9 7.4-7.9zm0 26.4v10l-4.3-2.9 4.3 4.5v4.2L78.5 85l7.4-7.9zM15.5 85l-7.4 7.9v-4.1l4.4-4.6-4.4 2.9v-10l7.4 7.9zM8.1 61.5V50.7l7.4 7.9-7.4 7.9v-3.4l4.4-4.6-4.4 3zm0-26.2v-11l7.4 7.9-7.4 7.9v-3.3l4.4-4.6-4.4 3.1zM4.5 17.6L16.8 4.4l.6-.7h59.2l.6.7 12.3 13.2.6.6V99l-.6.6-12.3 13.2-.3.3-.4.2-28.7 13.2-.9.4-.9-.4-28.7-13.2-.4-.2-.3-.3L4.5 99.6l-.6-.6V18.2l.6-.6zM15.8 0l-.6.7L.7 16.1l-.6.6v83.7l.6.6 13.8 14.8.3.3.4.2 30.9 14.2.9.5.9-.4 30.9-14.2.4-.2.3-.3 13.8-14.8.6-.6V16.7l-.6-.6L78.9.7l-.7-.7H15.8z" fill-rule="evenodd" clip-rule="evenodd" fill="#fff"/></svg>