<svg xmlns="http://www.w3.org/2000/svg" width="661" height="661"><defs><mask id="b" width="2" height="2" x="-1" y="-1"><path fill="#fff" d="M290 290h80v80h-80z"/><path d="M330 290c22.091 0 40 17.909 40 40s-17.909 40-40 40-40-17.909-40-40 17.909-40 40-40z"/></mask><filter id="a" width="198" height="198" x="231" y="231" filterUnits="userSpaceOnUse"><feOffset in="SourceGraphic" result="FeOffset1025Out"/><feGaussianBlur in="FeOffset1025Out" result="FeGaussianBlur1026Out" stdDeviation="19.6 19.6"/></filter><clipPath id="c"><path fill="#fff" d="M330 294c19.882 0 36 16.118 36 36s-16.118 36-36 36-36-16.118-36-36 16.118-36 36-36z"/></clipPath><clipPath id="d"><path fill="#fff" d="M330.5 240c49.982 0 90.5 40.518 90.5 90.5S380.482 421 330.5 421 240 380.482 240 330.5s40.518-90.5 90.5-90.5z"/></clipPath><clipPath id="e"><path fill="#fff" d="M330 160c93.888 0 170 76.112 170 170s-76.112 170-170 170-170-76.112-170-170 76.112-170 170-170z"/></clipPath><clipPath id="f"><path fill="#fff" d="M330.5 80C468.847 80 581 192.153 581 330.5 581 468.847 468.847 581 330.5 581 192.153 581 80 468.847 80 330.5 80 192.153 192.153 80 330.5 80z"/></clipPath><clipPath id="g"><path fill="#fff" d="M330.5 0C513.03 0 661 147.97 661 330.5S513.03 661 330.5 661 0 513.03 0 330.5 147.97 0 330.5 0z"/></clipPath></defs><g filter="url(#a)"><path fill="none" d="M330 290c22.091 0 40 17.909 40 40s-17.909 40-40 40-40-17.909-40-40 17.909-40 40-40z" mask="url(&quot;#b&quot;)"/><path fill="#b4d2b4" fill-opacity=".5" d="M330 290c22.091 0 40 17.909 40 40s-17.909 40-40 40-40-17.909-40-40 17.909-40 40-40z"/></g><g filter="url(#a)"><path fill="none" d="M330 290c22.091 0 40 17.909 40 40s-17.909 40-40 40-40-17.909-40-40 17.909-40 40-40z" mask="url(&quot;#b&quot;)"/><path fill="#b4d2b4" fill-opacity=".5" d="M330 290c22.091 0 40 17.909 40 40s-17.909 40-40 40-40-17.909-40-40 17.909-40 40-40z"/></g><path fill="#173c3b" d="M330 290c22.091 0 40 17.909 40 40s-17.909 40-40 40-40-17.909-40-40 17.909-40 40-40z"/><path fill="none" stroke="#bbd8b9" stroke-miterlimit="50" stroke-width="4" d="M330 294c19.882 0 36 16.118 36 36s-16.118 36-36 36-36-16.118-36-36 16.118-36 36-36z" clip-path="url(&quot;#c&quot;)"/><path fill="none" stroke="#53763e" stroke-miterlimit="50" stroke-width="2" d="M330.5 240c49.982 0 90.5 40.518 90.5 90.5S380.482 421 330.5 421 240 380.482 240 330.5s40.518-90.5 90.5-90.5z" clip-path="url(&quot;#d&quot;)" opacity=".75"/><path fill="none" stroke="#53763e" stroke-miterlimit="50" stroke-width="2" d="M330 160c93.888 0 170 76.112 170 170s-76.112 170-170 170-170-76.112-170-170 76.112-170 170-170z" clip-path="url(&quot;#e&quot;)" opacity=".5"/><path fill="none" stroke="#53763e" stroke-miterlimit="50" stroke-width="2" d="M330.5 80C468.847 80 581 192.153 581 330.5 581 468.847 468.847 581 330.5 581 192.153 581 80 468.847 80 330.5 80 192.153 192.153 80 330.5 80z" clip-path="url(&quot;#f&quot;)" opacity=".25"/><path fill="none" stroke="#53763e" stroke-miterlimit="50" stroke-width="2" d="M330.5 0C513.03 0 661 147.97 661 330.5S513.03 661 330.5 661 0 513.03 0 330.5 147.97 0 330.5 0z" clip-path="url(&quot;#g&quot;)" opacity=".05"/><path fill="#bbd8b9" d="M342.691 330.919l-20.359 11.754v-23.508z"/></svg>