<svg width="130" height="130" viewBox="0 0 130 130" fill="none" xmlns="http://www.w3.org/2000/svg">
<circle cx="65" cy="65" r="63.5" fill="white" stroke="#8DBF88" stroke-width="3"/>
<path d="M97.4019 42.8088C86.5886 40.0052 75.7117 35.6394 65.9473 30.1836C65.5092 29.9388 64.9754 29.9388 64.5374 30.1836C54.4922 35.7957 44.2033 39.9254 33.0825 42.8088C32.4452 42.9741 32 43.5494 32 44.2079V60.1632C32 76.5725 39.9915 87.4272 46.6954 93.6435C53.8869 100.312 62.2267 104 65.2424 104C68.2578 104 76.5975 100.312 83.7892 93.6435C90.4932 87.427 98.4846 76.5724 98.4846 60.1632V44.2079C98.4846 43.5495 98.0393 42.9741 97.4019 42.8088ZM81.8237 91.5241C77.8408 95.2173 73.9704 97.5489 71.4249 98.8544C68.1991 100.509 65.9601 101.11 65.2425 101.11C64.5248 101.11 62.2858 100.509 59.06 98.8544C56.5145 97.5487 52.644 95.2173 48.6611 91.5241C42.379 85.6988 34.8906 75.5296 34.8906 60.1632V45.3216C45.5807 42.4599 55.5298 38.4529 65.2425 33.0981C74.7089 38.3099 85.1628 42.5194 95.5938 45.3211V60.1632C95.5938 75.5296 88.1058 85.6988 81.8237 91.5241Z" fill="#8DBF88"/>
<path d="M92.3843 46.6746C83.2302 44.0133 74.3272 40.3986 65.9224 35.9308C65.498 35.7052 64.9889 35.7052 64.5642 35.9315C56.1471 40.4177 47.2441 44.0331 38.1023 46.6773C37.4841 46.8561 37.0585 47.4221 37.0585 48.0657V60.1632C37.0585 65.8111 38.1287 71.1708 40.2393 76.0937C42.3394 80.9919 45.4715 85.4622 49.5483 89.3806C52.4641 92.1831 55.831 94.6527 59.2849 96.5226C59.9036 96.8576 63.0864 98.5463 64.9797 98.8959C65.0665 98.912 65.1543 98.9201 65.2421 98.9201C65.3299 98.9201 65.4178 98.912 65.5044 98.8959C67.3973 98.5464 70.5804 96.8576 71.1992 96.5226C74.6528 94.6529 78.0196 92.1834 80.9357 89.3808C85.0126 85.4624 88.1446 80.992 90.2447 76.0938C92.3559 71.1708 93.4261 65.8111 93.4261 60.1632V48.0625C93.4261 47.4198 93.0015 46.8541 92.3843 46.6746ZM90.5353 60.1632C90.5353 70.7681 86.6317 79.8972 78.9329 87.2965C76.2016 89.9215 73.0517 92.2327 69.8235 93.9804C68.354 94.7757 66.3703 95.7031 65.2424 95.9943C64.114 95.7031 62.1304 94.7759 60.6613 93.9804C57.4327 92.2327 54.2826 89.9215 51.5516 87.2965C43.8528 79.8972 39.9492 70.7682 39.9492 60.1632V49.1478C48.6723 46.5504 57.1733 43.087 65.2448 38.842C73.3038 43.0695 81.8037 46.5317 90.5353 49.1431V60.1632Z" fill="#8DBF88"/>
<path d="M53.2501 81.7862L53.215 81.7483C52.6731 81.1624 51.7585 81.1268 51.1726 81.6688C50.5866 82.2108 50.5509 83.1253 51.0931 83.7112C51.0944 83.7128 51.1057 83.725 51.1109 83.7304C51.3954 84.0406 51.7851 84.1984 52.1762 84.1984C52.5206 84.1984 52.8663 84.076 53.1425 83.8274C53.7358 83.2932 53.784 82.3794 53.2501 81.7862Z" fill="#8DBF88"/>
<path d="M61.0456 88.3467C59.3049 87.2483 57.6285 85.9819 56.0632 84.5825C55.4683 84.0505 54.5544 84.1015 54.0224 84.6968C53.4904 85.2919 53.5415 86.2056 54.1366 86.7376C55.8212 88.2437 57.6267 89.6076 59.5029 90.7915C59.7424 90.9427 60.009 91.0146 60.2728 91.0146C60.7524 91.0146 61.2215 90.776 61.4964 90.3404C61.9226 89.6651 61.7206 88.7726 61.0456 88.3467Z" fill="#8DBF88"/>
<path d="M77.8977 55.349C77.0457 54.4968 75.9094 54.0277 74.6986 54.0277C73.4877 54.0277 72.3516 54.497 71.4996 55.349L62.3167 64.532L58.9844 61.1998C58.1324 60.3476 56.9963 59.8783 55.7855 59.8783C54.5747 59.8783 53.4385 60.3476 52.5862 61.1998C50.8224 62.9636 50.8224 65.8339 52.5862 67.5978L59.1178 74.129C59.9698 74.9812 61.106 75.4505 62.3167 75.4505C63.5276 75.4505 64.6638 74.9812 65.5158 74.129L77.8977 61.7471C78.7499 60.8951 79.219 59.7589 79.219 58.548C79.219 57.3372 78.7499 56.2011 77.8977 55.349ZM75.8536 59.7031L63.4718 72.0851C63.1656 72.3912 62.7554 72.5598 62.3167 72.5598C61.8781 72.5598 61.4677 72.3913 61.1616 72.0851L54.6305 65.5539C54.3244 65.2478 54.1559 64.8376 54.1559 64.399C54.1557 63.9602 54.3244 63.55 54.6306 63.2439C54.9368 62.9378 55.3469 62.7692 55.7856 62.7692C56.2243 62.7692 56.6343 62.9378 56.9406 63.2439L61.2949 67.5981C61.8593 68.1625 62.7745 68.1625 63.3389 67.5981L73.5437 57.3931C73.8498 57.087 74.2598 56.9184 74.6986 56.9184C75.1373 56.9184 75.5475 57.0871 75.8536 57.3932C76.1597 57.6994 76.3282 58.1095 76.3282 58.5482C76.3282 58.987 76.1597 59.3972 75.8536 59.7031Z" fill="#8DBF88"/>
</svg>
