<svg width="130" height="131" viewBox="0 0 130 131" fill="none" xmlns="http://www.w3.org/2000/svg">
<circle cx="65" cy="65.5" r="63.5" fill="white" stroke="#8DBF88" stroke-width="3"/>
<path d="M48.1 62.613H42.3V65.5021H48.1V62.613Z" fill="#8DBF88"/>
<path d="M74.2 62.613H68.4V65.5021H74.2V62.613Z" fill="#8DBF88"/>
<path d="M74.2 42.3892C76.81 42.3892 78.4412 43.3824 80.2356 46.0728L87.4494 56.8347H83.7156L76.8825 45.9645C76.6106 45.5492 76.1575 45.2783 75.65 45.2783H65.5V42.3892H74.2ZM80.29 56.8347H65.5V48.1674H74.8525L80.29 56.8347ZM52.45 39.5001C47.7738 39.5001 44.7831 41.4683 42.445 46.0728L37.0619 56.8347H26.35C23.9394 56.8347 22 58.7668 22 61.1684V81.3921C22 82.1866 22.6525 82.8367 23.45 82.8367H30.8088C31.6062 88.3621 36.7356 92.1901 42.2819 91.3956C46.7406 90.7637 50.2388 87.2787 50.8731 82.8367H80.1088C80.9063 88.3621 86.0356 92.1901 91.5819 91.3956C96.0406 90.7637 99.5387 87.2787 100.173 82.8367H107.55C108.348 82.8367 109 82.1866 109 81.3921V65.5021C109 62.7935 107.786 59.3447 101.931 58.2974L90.9838 56.9431L82.6463 44.4838C80.9788 41.3961 77.7163 39.4821 74.2 39.5001H52.45ZM45.055 47.3729C46.9037 43.6893 48.8431 42.3892 52.45 42.3892H62.6V45.2783H49.55C49.0063 45.2783 48.4988 45.5853 48.245 46.0728L42.8619 56.8347H40.3063L45.055 47.3729ZM62.6 48.1674V56.8347H46.0881L50.4381 48.1674H62.6ZM24.9 61.1684C24.9 60.3739 25.5525 59.7239 26.35 59.7239H32.3494L28.4887 65.5021H24.9V61.1684ZM24.9 68.3912H27.8V74.1694H24.9V68.3912ZM30.8088 79.9476H24.9V77.0585H31.6969C31.2619 77.9794 30.9537 78.9544 30.8088 79.9476ZM30.7 74.1694V67.38L35.8294 59.7239H36.5V72.2734C35.485 72.7609 34.5606 73.3929 33.7631 74.1694H30.7ZM40.85 88.6149C36.8444 88.6149 33.6 85.3827 33.6 81.3921C33.6 77.4016 36.8444 74.1694 40.85 74.1694C44.8556 74.1694 48.1 77.4016 48.1 81.3921C48.1 85.3827 44.8556 88.6149 40.85 88.6149ZM47.9369 74.1694C45.6894 71.9484 42.5175 70.9191 39.4 71.3886V59.7239H62.6V68.3912H48.1V71.2803H62.6V74.1694H47.9369ZM80.1088 79.9476H50.8913C50.7463 78.9544 50.4563 77.9794 50.0213 77.0585H81.015C80.5619 77.9794 80.2538 78.9544 80.1088 79.9476ZM65.5 74.1694V59.7239H88.7V68.3912H68.4V71.2803H88.7V71.3886C86.5794 71.6956 84.6038 72.6706 83.0631 74.1694H65.5ZM90.15 88.6149C86.1444 88.6149 82.9 85.3827 82.9 81.3921C82.9 77.4016 86.1444 74.1694 90.15 74.1694C94.1556 74.1694 97.4 77.4016 97.4 81.3921C97.4 85.3827 94.1556 88.6149 90.15 88.6149ZM106.1 79.9476H100.191C100.046 78.9544 99.7563 77.9794 99.3213 77.0585H106.1V79.9476ZM106.1 74.1694H97.2369C95.6963 72.6706 93.7206 71.6956 91.6 71.3886V59.9044L97.4 60.6267V64.0575C97.4 66.4591 99.3394 68.3912 101.75 68.3912H106.1V74.1694ZM101.75 65.5021C100.952 65.5021 100.3 64.852 100.3 64.0575V61.0059L101.496 61.1503C105.574 61.8907 106.1 63.8589 106.1 65.5021H101.75Z" fill="#8DBF88"/>
<path d="M45.2 68.3912H42.3V71.2803H45.2V68.3912Z" fill="#8DBF88"/>
<path d="M40.85 77.0585C38.4394 77.0585 36.5 78.9906 36.5 81.3921C36.5 83.7937 38.4394 85.7258 40.85 85.7258C43.2606 85.7258 45.2 83.7937 45.2 81.3921C45.2 78.9906 43.2606 77.0585 40.85 77.0585ZM40.85 82.8367C40.0525 82.8367 39.4 82.1866 39.4 81.3921C39.4 80.5976 40.0525 79.9476 40.85 79.9476C41.6475 79.9476 42.3 80.5976 42.3 81.3921C42.3 82.1866 41.6475 82.8367 40.85 82.8367Z" fill="#8DBF88"/>
<path d="M90.15 77.0585C87.7394 77.0585 85.8 78.9906 85.8 81.3921C85.8 83.7937 87.7394 85.7258 90.15 85.7258C92.5606 85.7258 94.5 83.7937 94.5 81.3921C94.5 78.9906 92.5606 77.0585 90.15 77.0585ZM90.15 82.8367C89.3525 82.8367 88.7 82.1866 88.7 81.3921C88.7 80.5976 89.3525 79.9476 90.15 79.9476C90.9475 79.9476 91.6 80.5976 91.6 81.3921C91.6 82.1866 90.9475 82.8367 90.15 82.8367Z" fill="#8DBF88"/>
</svg>
