<svg width="130" height="130" viewBox="0 0 130 130" fill="none" xmlns="http://www.w3.org/2000/svg">
<circle cx="65" cy="65" r="63.5" fill="white" stroke="#8DBF88" stroke-width="3"/>
<path d="M103.71 102.419H98.5484V93.2581C102.21 92.5323 105 88.8226 105 84.3548C105 79.371 101.532 75.3226 97.2581 75.3226C92.9839 75.3226 89.5161 79.371 89.5161 84.3548C89.5161 88.8226 92.3064 92.5484 95.9677 93.2581V97.4193L94.0968 96.1774C93.5 95.7742 92.7097 95.9355 92.3064 96.5323C91.9032 97.129 92.0645 97.9194 92.6613 98.3226L95.9516 100.516V102.419H88.2097V31.4516C88.2097 30.7419 87.629 30.1613 86.9194 30.1613H77.8871V26.2903C77.8871 25.5806 77.3064 25 76.5968 25H53.3871C52.6774 25 52.0968 25.5806 52.0968 26.2903V30.1613H43.0645C42.3548 30.1613 41.7742 30.7419 41.7742 31.4516V102.419H34.0323V93.2581C37.6935 92.5323 40.4839 88.8226 40.4839 84.3548C40.4839 79.371 37.0161 75.3226 32.7419 75.3226C28.4677 75.3226 25 79.371 25 84.3548C25 88.8226 27.7903 92.5484 31.4516 93.2581V97.4193L29.5806 96.1774C28.9839 95.7742 28.1935 95.9355 27.7903 96.5323C27.3871 97.129 27.5484 97.9194 28.1452 98.3226L31.4516 100.532V102.419H26.2903C25.5806 102.419 25 103 25 103.71C25 104.419 25.5806 105 26.2903 105H103.71C104.419 105 105 104.419 105 103.71C105 103 104.419 102.419 103.71 102.419ZM32.7419 83.0645C32.0323 83.0645 31.4516 83.6452 31.4516 84.3548V90.5968C29.2258 89.871 27.5806 87.3548 27.5806 84.3548C27.5806 80.7903 29.8871 77.9032 32.7419 77.9032C35.5968 77.9032 37.9032 80.7903 37.9032 84.3548C37.9032 87.3548 36.2581 89.8871 34.0323 90.5968V84.3548C34.0323 83.6452 33.4516 83.0645 32.7419 83.0645ZM54.6774 27.5806H75.3226V30.1613H54.6774V27.5806ZM63.7097 102.419H62.4194V92.0968H63.7097V102.419ZM67.5806 102.419H66.2903V92.0968H67.5806V102.419ZM85.6452 102.419H70.1613V90.8064C70.1613 90.0968 69.5806 89.5161 68.871 89.5161H61.129C60.4194 89.5161 59.8387 90.0968 59.8387 90.8064V102.419H44.3548V40.4839H85.6452V102.419ZM85.6452 37.9032H44.3548V32.7419H85.6452V37.9032ZM97.2581 83.0645C96.5484 83.0645 95.9677 83.6452 95.9677 84.3548V90.5968C93.7419 89.871 92.0968 87.3548 92.0968 84.3548C92.0968 80.7903 94.4193 77.9032 97.2581 77.9032C100.097 77.9032 102.419 80.7903 102.419 84.3548C102.419 87.3548 100.774 89.8871 98.5484 90.5968V84.3548C98.5484 83.6452 97.9677 83.0645 97.2581 83.0645ZM68.871 76.6129H61.129C60.4194 76.6129 59.8387 77.1935 59.8387 77.9032V85.6452C59.8387 86.3548 60.4194 86.9355 61.129 86.9355H68.871C69.5806 86.9355 70.1613 86.3548 70.1613 85.6452V77.9032C70.1613 77.1935 69.5806 76.6129 68.871 76.6129ZM67.5806 84.3548H62.4194V79.1935H67.5806V84.3548ZM55.9677 76.6129H48.2258C47.5161 76.6129 46.9355 77.1935 46.9355 77.9032V85.6452C46.9355 86.3548 47.5161 86.9355 48.2258 86.9355H55.9677C56.6774 86.9355 57.2581 86.3548 57.2581 85.6452V77.9032C57.2581 77.1935 56.6774 76.6129 55.9677 76.6129ZM54.6774 84.3548H49.5161V79.1935H54.6774V84.3548ZM81.7742 76.6129H74.0323C73.3226 76.6129 72.7419 77.1935 72.7419 77.9032V85.6452C72.7419 86.3548 73.3226 86.9355 74.0323 86.9355H81.7742C82.4839 86.9355 83.0645 86.3548 83.0645 85.6452V77.9032C83.0645 77.1935 82.4839 76.6129 81.7742 76.6129ZM80.4839 84.3548H75.3226V79.1935H80.4839V84.3548ZM55.9677 89.5161H48.2258C47.5161 89.5161 46.9355 90.0968 46.9355 90.8064V98.5484C46.9355 99.2581 47.5161 99.8387 48.2258 99.8387H55.9677C56.6774 99.8387 57.2581 99.2581 57.2581 98.5484V90.8064C57.2581 90.0968 56.6774 89.5161 55.9677 89.5161ZM54.6774 97.2581H49.5161V92.0968H54.6774V97.2581ZM81.7742 89.5161H74.0323C73.3226 89.5161 72.7419 90.0968 72.7419 90.8064V98.5484C72.7419 99.2581 73.3226 99.8387 74.0323 99.8387H81.7742C82.4839 99.8387 83.0645 99.2581 83.0645 98.5484V90.8064C83.0645 90.0968 82.4839 89.5161 81.7742 89.5161ZM80.4839 97.2581H75.3226V92.0968H80.4839V97.2581ZM68.871 65H61.129C60.4194 65 59.8387 65.5806 59.8387 66.2903V74.0323C59.8387 74.7419 60.4194 75.3226 61.129 75.3226H68.871C69.5806 75.3226 70.1613 74.7419 70.1613 74.0323V66.2903C70.1613 65.5806 69.5806 65 68.871 65ZM67.5806 72.7419H62.4194V67.5806H67.5806V72.7419ZM55.9677 65H48.2258C47.5161 65 46.9355 65.5806 46.9355 66.2903V74.0323C46.9355 74.7419 47.5161 75.3226 48.2258 75.3226H55.9677C56.6774 75.3226 57.2581 74.7419 57.2581 74.0323V66.2903C57.2581 65.5806 56.6774 65 55.9677 65ZM54.6774 72.7419H49.5161V67.5806H54.6774V72.7419ZM81.7742 65H74.0323C73.3226 65 72.7419 65.5806 72.7419 66.2903V74.0323C72.7419 74.7419 73.3226 75.3226 74.0323 75.3226H81.7742C82.4839 75.3226 83.0645 74.7419 83.0645 74.0323V66.2903C83.0645 65.5806 82.4839 65 81.7742 65ZM80.4839 72.7419H75.3226V67.5806H80.4839V72.7419ZM68.871 53.3871H61.129C60.4194 53.3871 59.8387 53.9677 59.8387 54.6774V62.4194C59.8387 63.129 60.4194 63.7097 61.129 63.7097H68.871C69.5806 63.7097 70.1613 63.129 70.1613 62.4194V54.6774C70.1613 53.9677 69.5806 53.3871 68.871 53.3871ZM67.5806 61.129H62.4194V55.9677H67.5806V61.129ZM55.9677 53.3871H48.2258C47.5161 53.3871 46.9355 53.9677 46.9355 54.6774V62.4194C46.9355 63.129 47.5161 63.7097 48.2258 63.7097H55.9677C56.6774 63.7097 57.2581 63.129 57.2581 62.4194V54.6774C57.2581 53.9677 56.6774 53.3871 55.9677 53.3871ZM54.6774 61.129H49.5161V55.9677H54.6774V61.129ZM81.7742 53.3871H74.0323C73.3226 53.3871 72.7419 53.9677 72.7419 54.6774V62.4194C72.7419 63.129 73.3226 63.7097 74.0323 63.7097H81.7742C82.4839 63.7097 83.0645 63.129 83.0645 62.4194V54.6774C83.0645 53.9677 82.4839 53.3871 81.7742 53.3871ZM80.4839 61.129H75.3226V55.9677H80.4839V61.129ZM68.871 41.7742H61.129C60.4194 41.7742 59.8387 42.3548 59.8387 43.0645V50.8064C59.8387 51.5161 60.4194 52.0968 61.129 52.0968H68.871C69.5806 52.0968 70.1613 51.5161 70.1613 50.8064V43.0645C70.1613 42.3548 69.5806 41.7742 68.871 41.7742ZM67.5806 49.5161H62.4194V44.3548H67.5806V49.5161ZM55.9677 41.7742H48.2258C47.5161 41.7742 46.9355 42.3548 46.9355 43.0645V50.8064C46.9355 51.5161 47.5161 52.0968 48.2258 52.0968H55.9677C56.6774 52.0968 57.2581 51.5161 57.2581 50.8064V43.0645C57.2581 42.3548 56.6774 41.7742 55.9677 41.7742ZM54.6774 49.5161H49.5161V44.3548H54.6774V49.5161ZM81.7742 41.7742H74.0323C73.3226 41.7742 72.7419 42.3548 72.7419 43.0645V50.8064C72.7419 51.5161 73.3226 52.0968 74.0323 52.0968H81.7742C82.4839 52.0968 83.0645 51.5161 83.0645 50.8064V43.0645C83.0645 42.3548 82.4839 41.7742 81.7742 41.7742ZM80.4839 49.5161H75.3226V44.3548H80.4839V49.5161Z" fill="#8DBF88"/>
</svg>
