<svg width="130" height="130" viewBox="0 0 130 130" fill="none" xmlns="http://www.w3.org/2000/svg">
<circle cx="65" cy="65" r="63.5" fill="white" stroke="#8DBF88" stroke-width="3"/>
<path d="M37.9688 77.5C37.9688 78.3594 37.2656 79.0625 36.4062 79.0625C35.5469 79.0625 34.8438 78.3594 34.8438 77.5C34.8438 76.6406 35.5469 75.9375 36.4062 75.9375C37.2656 75.9375 37.9688 76.6406 37.9688 77.5ZM103.438 101.875H101.875V65C101.875 62.4219 99.7656 60.3125 97.1875 60.3125H95.1562V52.5C95.1562 52 94.9219 51.5312 94.5156 51.2344C94.1094 50.9375 93.5938 50.8594 93.125 51L85.3125 53.4844V43.125C85.3125 42.2656 84.6094 41.5625 83.75 41.5625H79.0625V38.4375H83.75C84.6094 38.4375 85.3125 37.7344 85.3125 36.875V26.5625C85.3125 25.7031 84.6094 25 83.75 25H46.25C45.3906 25 44.6875 25.7031 44.6875 26.5625V36.875C44.6875 37.7344 45.3906 38.4375 46.25 38.4375H50.9375V41.5625H46.25C45.3906 41.5625 44.6875 42.2656 44.6875 43.125V53.4844L36.875 51C36.4062 50.8438 35.875 50.9375 35.4844 51.2344C35.0938 51.5312 34.8438 52 34.8438 52.5V60.3125H32.8125C30.2344 60.3125 28.125 62.4219 28.125 65V101.875H26.5625C25.7031 101.875 25 102.578 25 103.438C25 104.297 25.7031 105 26.5625 105H103.438C104.297 105 105 104.297 105 103.438C105 102.578 104.297 101.875 103.438 101.875ZM97.1875 63.4375C98.0469 63.4375 98.75 64.1406 98.75 65V101.875H95.1562V63.4375H97.1875ZM92.0312 54.6406V101.875H85.3125V56.7656L92.0312 54.6406ZM47.8125 28.125H82.1875V35.3125H47.8125V28.125ZM54.0625 38.4375H75.9375V41.5625H54.0625V38.4375ZM82.1875 44.6875V101.875H75.9375V86.875C75.9375 86.0156 75.2344 85.3125 74.375 85.3125H55.625C54.7656 85.3125 54.0625 86.0156 54.0625 86.875V101.875H47.8125C47.8125 99.2969 47.8125 46.75 47.8125 44.6875H82.1875ZM66.5625 88.4375H72.8125V101.875H66.5625V88.4375ZM63.4375 101.875H57.1875V88.4375H63.4375V101.875ZM31.25 65C31.25 64.1406 31.9531 63.4375 32.8125 63.4375H34.8438V71.25C34.8438 72.1094 35.5469 72.8125 36.4062 72.8125C37.2656 72.8125 37.9688 72.1094 37.9688 71.25V54.6406L44.6875 56.7656V101.875H37.9688V83.75C37.9688 82.8906 37.2656 82.1875 36.4062 82.1875C35.5469 82.1875 34.8438 82.8906 34.8438 83.75V101.875H31.25V65ZM52.5 57.1875H61.875C62.7344 57.1875 63.4375 56.4844 63.4375 55.625V49.375C63.4375 48.5156 62.7344 47.8125 61.875 47.8125H52.5C51.6406 47.8125 50.9375 48.5156 50.9375 49.375V55.625C50.9375 56.4844 51.6406 57.1875 52.5 57.1875ZM54.0625 50.9375H60.3125V54.0625H54.0625V50.9375ZM68.125 57.1875H77.5C78.3594 57.1875 79.0625 56.4844 79.0625 55.625V49.375C79.0625 48.5156 78.3594 47.8125 77.5 47.8125H68.125C67.2656 47.8125 66.5625 48.5156 66.5625 49.375V55.625C66.5625 56.4844 67.2656 57.1875 68.125 57.1875ZM69.6875 50.9375H75.9375V54.0625H69.6875V50.9375ZM52.5 69.6875H61.875C62.7344 69.6875 63.4375 68.9844 63.4375 68.125V61.875C63.4375 61.0156 62.7344 60.3125 61.875 60.3125H52.5C51.6406 60.3125 50.9375 61.0156 50.9375 61.875V68.125C50.9375 68.9844 51.6406 69.6875 52.5 69.6875ZM54.0625 63.4375H60.3125V66.5625H54.0625V63.4375ZM68.125 69.6875H77.5C78.3594 69.6875 79.0625 68.9844 79.0625 68.125V61.875C79.0625 61.0156 78.3594 60.3125 77.5 60.3125H68.125C67.2656 60.3125 66.5625 61.0156 66.5625 61.875V68.125C66.5625 68.9844 67.2656 69.6875 68.125 69.6875ZM69.6875 63.4375H75.9375V66.5625H69.6875V63.4375ZM52.5 82.1875H61.875C62.7344 82.1875 63.4375 81.4844 63.4375 80.625V74.375C63.4375 73.5156 62.7344 72.8125 61.875 72.8125H52.5C51.6406 72.8125 50.9375 73.5156 50.9375 74.375V80.625C50.9375 81.4844 51.6406 82.1875 52.5 82.1875ZM54.0625 75.9375H60.3125V79.0625H54.0625V75.9375ZM68.125 82.1875H77.5C78.3594 82.1875 79.0625 81.4844 79.0625 80.625V74.375C79.0625 73.5156 78.3594 72.8125 77.5 72.8125H68.125C67.2656 72.8125 66.5625 73.5156 66.5625 74.375V80.625C66.5625 81.4844 67.2656 82.1875 68.125 82.1875ZM69.6875 75.9375H75.9375V79.0625H69.6875V75.9375Z" fill="#8DBF88"/>
</svg>
