<svg width="130" height="130" viewBox="0 0 130 130" fill="none" xmlns="http://www.w3.org/2000/svg">
<circle cx="65" cy="65" r="63.5" fill="white" stroke="#8DBF88" stroke-width="3"/>
<path d="M104.344 47.84L65.6719 25.1838C65.2656 24.9494 64.7656 24.9338 64.3594 25.1682L25.6875 46.4963C25.2656 46.7307 25 47.1838 25 47.6682V103.668C25 104.403 25.5938 104.996 26.3281 104.996H33C33.7344 104.996 34.3281 104.403 34.3281 103.668V67.6682H95.6562V103.668C95.6562 104.403 96.25 104.996 96.9844 104.996H103.656C104.391 104.996 104.984 104.403 104.984 103.668V48.9963C105 48.5275 104.75 48.09 104.344 47.84ZM95.6719 59.6682H34.3281V56.9963H95.6562V59.6682H95.6719ZM34.3281 64.9963V62.3244H95.6562V64.9963H34.3281ZM98.3281 102.324V55.6682C98.3281 54.9338 97.7344 54.34 97 54.34H33C32.2656 54.34 31.6719 54.9338 31.6719 55.6682V102.34H27.6719V48.4494L64.9844 27.8557L102.344 49.7463V102.309H98.3281V102.324Z" fill="#8DBF88"/>
<path d="M91.672 70.3244H75.6719C74.9376 70.3244 74.3438 70.9181 74.3438 71.6525V86.3244H59.672C58.9376 86.3244 58.3438 86.9181 58.3438 87.6525V103.653C58.3438 104.387 58.9376 104.981 59.672 104.981H91.672C92.4063 104.981 93.0001 104.387 93.0001 103.653V71.6681C93.0001 70.9181 92.4063 70.3244 91.672 70.3244ZM82.3282 72.9963H85.0001V75.6681H82.3282V72.9963ZM77.0001 72.9963H79.6719V76.9963C79.6719 77.7306 80.2657 78.3244 81.0001 78.3244H86.3282C87.0626 78.3244 87.6563 77.7306 87.6563 76.9963V72.9963H90.3282V86.3244H77.0001V72.9963ZM82.3282 88.9963H85.0001V91.6681H82.3282V88.9963ZM66.3282 88.9963H69.0001V91.6681H66.3282V88.9963ZM74.3282 102.324H61.0001V88.9963H63.672V92.9963C63.672 93.7306 64.2657 94.3244 65.0001 94.3244H70.3282C71.0626 94.3244 71.6563 93.7306 71.6563 92.9963V88.9963H74.3282V102.324ZM90.3282 102.324H77.0001V88.9963H79.6719V92.9963C79.6719 93.7306 80.2657 94.3244 81.0001 94.3244H86.3282C87.0626 94.3244 87.6563 93.7306 87.6563 92.9963V88.9963H90.3282V102.324Z" fill="#8DBF88"/>
<path d="M71.672 43.6682H58.3438C57.6095 43.6682 57.0157 44.262 57.0157 44.9963V50.3245C57.0157 51.0588 57.6095 51.6526 58.3438 51.6526H71.672C72.4063 51.6526 73.0001 51.0588 73.0001 50.3245V44.9963C73.0001 44.262 72.4063 43.6682 71.672 43.6682ZM70.3282 48.9963H59.6563V46.3245H70.3282V48.9963Z" fill="#8DBF88"/>
</svg>
