<svg width="130" height="130" viewBox="0 0 130 130" fill="none" xmlns="http://www.w3.org/2000/svg">
<circle cx="65" cy="65" r="63.5" fill="white" stroke="#8DBF88" stroke-width="3"/>
<path d="M31.2188 62.0625H36.2656C36.9062 62.0625 37.4375 61.5312 37.4375 60.8906V51.1094C37.4375 50.4688 36.9062 49.9375 36.2656 49.9375H31.2188C30.5781 49.9375 30.0469 50.4688 30.0469 51.1094V60.8906C30.0469 61.5469 30.5781 62.0625 31.2188 62.0625ZM32.3906 52.2812H35.0938V59.7188H32.3906V52.2812ZM30.0469 75.7344C30.0469 76.375 30.5781 76.9062 31.2188 76.9062H36.2656C36.9062 76.9062 37.4375 76.375 37.4375 75.7344V65.9531C37.4375 65.3125 36.9062 64.7812 36.2656 64.7812H31.2188C30.5781 64.7812 30.0469 65.3125 30.0469 65.9531V75.7344ZM32.3906 67.125H35.0938V74.5625H32.3906V67.125ZM30.0469 98.7812C30.0469 99.4219 30.5781 99.9531 31.2188 99.9531H36.2656C36.9062 99.9531 37.4375 99.4219 37.4375 98.7812V89C37.4375 88.3594 36.9062 87.8281 36.2656 87.8281H31.2188C30.5781 87.8281 30.0469 88.3594 30.0469 89V98.7812ZM32.3906 90.1562H35.0938V97.5938H32.3906V90.1562ZM103.828 49.8438C104.469 49.8438 105 49.3125 105 48.6719V42.2656C105 41.625 104.469 41.0938 103.828 41.0938H89.8438V32.3906H90.25C90.8906 32.3906 91.4219 31.8594 91.4219 31.2188V26.1719C91.4219 25.5312 90.8906 25 90.25 25H39.75C39.1094 25 38.5781 25.5312 38.5781 26.1719V31.2188C38.5781 31.8594 39.1094 32.3906 39.75 32.3906H40.1562V41.0938H26.1719C25.5312 41.0938 25 41.625 25 42.2656V48.6719C25 49.3125 25.5312 49.8438 26.1719 49.8438C26.8125 49.8438 27.3438 49.3125 27.3438 48.6719V43.4375H40.1562V79.6094H39.75C39.1094 79.6094 38.5781 80.1406 38.5781 80.7812V85.8281C38.5781 86.4687 39.1094 87 39.75 87H40.1562V102.656H27.3438V54.1562C27.3438 53.5156 26.8125 52.9844 26.1719 52.9844C25.5312 52.9844 25 53.5 25 54.1562V103.828C25 104.469 25.5312 105 26.1719 105H103.828C104.469 105 105 104.469 105 103.828V54.1562C105 53.5156 104.469 52.9844 103.828 52.9844C103.188 52.9844 102.656 53.5156 102.656 54.1562V102.656H89.8438V87H90.25C90.8906 87 91.4219 86.4687 91.4219 85.8281V80.7812C91.4219 80.1406 90.8906 79.6094 90.25 79.6094H89.8438V43.4375H102.656V48.6719C102.656 49.3125 103.188 49.8438 103.828 49.8438ZM89.0781 81.9531V84.6562H40.9219V81.9531H89.0781ZM63.8281 102.656H59.8594V92.0625H63.8281V102.656ZM66.1719 102.656V92.0625H70.1406V102.656H66.1719ZM87.5 102.656H72.4844V90.8906C72.4844 90.25 71.9531 89.7188 71.3125 89.7188H58.6875C58.0469 89.7188 57.5156 90.25 57.5156 90.8906V102.656H42.5V87H87.5V102.656ZM42.5 79.6094V32.3906H78.6094C79.25 32.3906 79.7812 31.8594 79.7812 31.2188C79.7812 30.5781 79.25 30.0469 78.6094 30.0469H40.9219V27.3438H89.0938V30.0469H84.1094C83.4688 30.0469 82.9375 30.5781 82.9375 31.2188C82.9375 31.8594 83.4688 32.3906 84.1094 32.3906H87.5V79.6094H42.5ZM51.4219 35.1094H46.375C45.7344 35.1094 45.2031 35.6406 45.2031 36.2812V46.0625C45.2031 46.7031 45.7344 47.2344 46.375 47.2344H51.4219C52.0625 47.2344 52.5938 46.7031 52.5938 46.0625V36.2656C52.5938 35.625 52.0781 35.0937 51.4219 35.1094ZM50.25 44.8906H47.5469V37.4375H50.25V44.8906ZM62.1562 35.1094H57.1094C56.4688 35.1094 55.9375 35.6406 55.9375 36.2812V46.0625C55.9375 46.7031 56.4688 47.2344 57.1094 47.2344H62.1562C62.7969 47.2344 63.3281 46.7031 63.3281 46.0625V36.2656C63.3281 35.625 62.8125 35.0937 62.1562 35.1094ZM60.9844 44.8906H58.2812V37.4375H60.9844V44.8906ZM72.8906 35.1094H67.8438C67.2031 35.1094 66.6719 35.6406 66.6719 36.2812V46.0625C66.6719 46.7031 67.2031 47.2344 67.8438 47.2344H72.8906C73.5312 47.2344 74.0625 46.7031 74.0625 46.0625V36.2656C74.0625 35.625 73.5469 35.0937 72.8906 35.1094ZM71.7188 44.8906H69.0156V37.4375H71.7188V44.8906ZM83.625 35.1094H78.5781C77.9375 35.1094 77.4062 35.6406 77.4062 36.2812V46.0625C77.4062 46.7031 77.9375 47.2344 78.5781 47.2344H83.625C84.2656 47.2344 84.7969 46.7031 84.7969 46.0625V36.2656C84.7969 35.625 84.2656 35.0937 83.625 35.1094ZM82.4531 44.8906H79.75V37.4375H82.4531V44.8906ZM51.4219 49.9375H46.375C45.7344 49.9375 45.2031 50.4688 45.2031 51.1094V60.8906C45.2031 61.5312 45.7344 62.0625 46.375 62.0625H51.4219C52.0625 62.0625 52.5938 61.5312 52.5938 60.8906V51.1094C52.5938 50.4688 52.0781 49.9375 51.4219 49.9375ZM50.25 59.7188H47.5469V52.2812H50.25V59.7188ZM62.1562 49.9375H57.1094C56.4688 49.9375 55.9375 50.4688 55.9375 51.1094V60.8906C55.9375 61.5312 56.4688 62.0625 57.1094 62.0625H62.1562C62.7969 62.0625 63.3281 61.5312 63.3281 60.8906V51.1094C63.3281 50.4688 62.8125 49.9375 62.1562 49.9375ZM60.9844 59.7188H58.2812V52.2812H60.9844V59.7188ZM72.8906 49.9375H67.8438C67.2031 49.9375 66.6719 50.4688 66.6719 51.1094V60.8906C66.6719 61.5312 67.2031 62.0625 67.8438 62.0625H72.8906C73.5312 62.0625 74.0625 61.5312 74.0625 60.8906V51.1094C74.0625 50.4688 73.5469 49.9375 72.8906 49.9375ZM71.7188 59.7188H69.0156V52.2812H71.7188V59.7188ZM83.625 49.9375H78.5781C77.9375 49.9375 77.4062 50.4688 77.4062 51.1094V60.8906C77.4062 61.5312 77.9375 62.0625 78.5781 62.0625H83.625C84.2656 62.0625 84.7969 61.5312 84.7969 60.8906V51.1094C84.7969 50.4688 84.2656 49.9375 83.625 49.9375ZM82.4531 59.7188H79.75V52.2812H82.4531V59.7188ZM51.4219 64.7812H46.375C45.7344 64.7812 45.2031 65.3125 45.2031 65.9531V75.7344C45.2031 76.375 45.7344 76.9062 46.375 76.9062H51.4219C52.0625 76.9062 52.5938 76.375 52.5938 75.7344V65.9531C52.5938 65.2969 52.0781 64.7812 51.4219 64.7812ZM50.25 74.5625H47.5469V67.125H50.25V74.5625ZM62.1562 64.7812H57.1094C56.4688 64.7812 55.9375 65.3125 55.9375 65.9531V75.7344C55.9375 76.375 56.4688 76.9062 57.1094 76.9062H62.1562C62.7969 76.9062 63.3281 76.375 63.3281 75.7344V65.9531C63.3281 65.2969 62.8125 64.7812 62.1562 64.7812ZM60.9844 74.5625H58.2812V67.125H60.9844V74.5625ZM72.8906 64.7812H67.8438C67.2031 64.7812 66.6719 65.3125 66.6719 65.9531V75.7344C66.6719 76.375 67.2031 76.9062 67.8438 76.9062H72.8906C73.5312 76.9062 74.0625 76.375 74.0625 75.7344V65.9531C74.0625 65.2969 73.5469 64.7812 72.8906 64.7812ZM71.7188 74.5625H69.0156V67.125H71.7188V74.5625ZM83.625 64.7812H78.5781C77.9375 64.7812 77.4062 65.3125 77.4062 65.9531V75.7344C77.4062 76.375 77.9375 76.9062 78.5781 76.9062H83.625C84.2656 76.9062 84.7969 76.375 84.7969 75.7344V65.9531C84.7969 65.2969 84.2656 64.7812 83.625 64.7812ZM82.4531 74.5625H79.75V67.125H82.4531V74.5625ZM46.375 99.9531H53.6406C54.2812 99.9531 54.8125 99.4219 54.8125 98.7812V90.8906C54.8125 90.25 54.2812 89.7188 53.6406 89.7188H46.375C45.7344 89.7188 45.2031 90.25 45.2031 90.8906V98.7812C45.2031 99.4219 45.7344 99.9531 46.375 99.9531ZM47.5469 92.0625H52.4688V97.6094H47.5469V92.0625ZM76.3594 99.9531H83.625C84.2656 99.9531 84.7969 99.4219 84.7969 98.7812V90.8906C84.7969 90.25 84.2656 89.7188 83.625 89.7188H76.3594C75.7188 89.7188 75.1875 90.25 75.1875 90.8906V98.7812C75.1875 99.4219 75.7188 99.9531 76.3594 99.9531ZM77.5312 92.0625H82.4531V97.6094H77.5312V92.0625ZM99.9531 51.1094C99.9531 50.4688 99.4219 49.9375 98.7812 49.9375H93.7344C93.0938 49.9375 92.5625 50.4688 92.5625 51.1094V60.8906C92.5625 61.5312 93.0938 62.0625 93.7344 62.0625H98.7812C99.4219 62.0625 99.9531 61.5312 99.9531 60.8906V51.1094ZM97.6094 59.7188H94.9062V52.2812H97.6094V59.7188ZM99.9531 65.9531C99.9531 65.3125 99.4219 64.7812 98.7812 64.7812H93.7344C93.0938 64.7812 92.5625 65.3125 92.5625 65.9531V75.7344C92.5625 76.375 93.0938 76.9062 93.7344 76.9062H98.7812C99.4219 76.9062 99.9531 76.375 99.9531 75.7344V65.9531ZM97.6094 74.5625H94.9062V67.125H97.6094V74.5625ZM98.7812 87.8125H93.7344C93.0938 87.8125 92.5625 88.3438 92.5625 88.9844V98.7656C92.5625 99.4062 93.0938 99.9375 93.7344 99.9375H98.7812C99.4219 99.9375 99.9531 99.4062 99.9531 98.7656V88.9844C99.9531 88.3438 99.4219 87.8125 98.7812 87.8125ZM97.6094 97.6094H94.9062V90.1562H97.6094V97.6094Z" fill="#8DBF88"/>
</svg>
