<svg width="130" height="130" viewBox="0 0 130 130" fill="none" xmlns="http://www.w3.org/2000/svg">
<circle cx="65" cy="65" r="63.5" fill="white" stroke="#8DBF88" stroke-width="3"/>
<path d="M95.7711 38.3667C96.2313 37.966 96.2906 37.2684 95.8898 36.7935C95.4891 36.3334 94.7914 36.2741 94.3164 36.6748L91.9117 38.7229C91.4516 39.1236 91.3922 39.8211 91.793 40.296C92.0156 40.5483 92.3273 40.6819 92.6391 40.6819C92.8914 40.6819 93.1586 40.5928 93.3664 40.4148L95.7711 38.3667Z" fill="#8DBF88"/>
<path d="M90.9171 61.3853V62.7507C90.9171 63.3591 91.4218 63.8637 92.0304 63.8637C92.639 63.8637 93.1437 63.3591 93.1437 62.7507V61.3853C93.1437 60.7768 92.639 60.2722 92.0304 60.2722C91.4218 60.2722 90.9171 60.762 90.9171 61.3853Z" fill="#8DBF88"/>
<path d="M34.6296 84.3741C33.4718 85.5317 33.4718 87.4166 34.6296 88.5742C35.7874 89.7318 37.6726 89.7318 38.8304 88.5742C39.9882 87.4166 39.9882 85.5317 38.8304 84.3741C37.6726 83.2017 35.7874 83.2017 34.6296 84.3741ZM37.2569 87.001C36.9601 87.2978 36.4999 87.2978 36.203 87.001C35.9062 86.7042 35.9062 86.2293 36.203 85.9473C36.4999 85.6505 36.9601 85.6505 37.2569 85.9473C37.5538 86.2293 37.5538 86.7042 37.2569 87.001Z" fill="#8DBF88"/>
<path d="M47.5585 79.8476C48.7163 78.69 48.7163 76.8052 47.5585 75.6476C46.4007 74.4899 44.5155 74.4899 43.3577 75.6476C42.1999 76.8052 42.1999 78.69 43.3577 79.8476C44.5155 81.02 46.4007 81.02 47.5585 79.8476ZM44.9312 77.2207C45.2281 76.9239 45.7031 76.9239 45.9851 77.2207C46.282 77.5175 46.282 77.9776 45.9851 78.2744C45.6882 78.5713 45.2281 78.5713 44.9312 78.2744C44.6343 77.9925 44.6343 77.5175 44.9312 77.2207Z" fill="#8DBF88"/>
<path d="M39.8249 80.6342C39.3945 81.0646 39.3945 81.777 39.8249 82.2073L40.9976 83.3798C41.2202 83.6024 41.5023 83.7063 41.7843 83.7063C42.0663 83.7063 42.3484 83.6024 42.571 83.3798C43.0015 82.9494 43.0015 82.237 42.571 81.8066L41.3984 80.6342C40.9679 80.1889 40.2554 80.1889 39.8249 80.6342Z" fill="#8DBF88"/>
<path d="M63.3672 44.3031H68.5625C69.1711 44.3031 69.6758 43.7985 69.6758 43.19C69.6758 42.5815 69.1711 42.077 68.5625 42.077H63.3672C62.7586 42.077 62.2539 42.5815 62.2539 43.19C62.2539 43.7985 62.7586 44.3031 63.3672 44.3031Z" fill="#8DBF88"/>
<path d="M101.887 100.759H83.3766V96.3067C83.3766 95.1491 82.4414 94.2141 81.2836 94.2141H79.1609V89.4055C79.1609 88.4557 78.3891 87.6691 77.4242 87.6691H76.0289L70.8633 47.7317H72.8078C74.218 47.7317 75.3461 46.5889 75.3461 45.1939V40.8751L87.2359 42.1515V75.1581C87.2359 75.5588 87.4438 75.9298 87.8 76.1228C88.1414 76.3157 88.557 76.3305 88.9133 76.1228C92.2086 74.2231 94.8508 71.2103 96.7805 67.1884C97.0477 66.6393 96.8102 65.9714 96.2609 65.7043C95.7117 65.4372 95.0438 65.6746 94.7766 66.2237C93.3961 69.1178 91.6148 71.4033 89.4773 73.0655C89.4773 71.6853 89.4773 39.02 89.4773 37.3133L96.6469 31.1987C98.8438 43.9027 98.7398 54.3212 96.3352 62.1721C96.157 62.7658 96.4836 63.3891 97.0773 63.5672C97.6711 63.7453 98.2945 63.4188 98.4727 62.8251C101.011 54.4993 101.1 43.5168 98.7398 30.1747C98.6211 29.5217 98.1609 28.9725 97.5375 28.7499C96.9141 28.5273 96.2164 28.6609 95.7117 29.0913L88.0523 35.6065L55.6336 29.2842C55.025 29.1655 54.4461 29.5662 54.3273 30.1598C54.2086 30.7683 54.6094 31.3471 55.2031 31.4659L87.2508 37.714V39.9104C85.4695 39.7175 36.5 34.4638 34.8523 34.2857L35.1195 33.8108C36.975 30.4418 40.7602 28.6609 44.5453 29.4029L50.75 30.6199C51.3586 30.7386 51.9375 30.3379 52.0563 29.7443C52.175 29.1358 51.7742 28.557 51.1805 28.4383L44.9609 27.2065C40.2258 26.2863 35.4906 28.4976 33.1602 32.7274L32.0914 34.6715C31.9133 34.998 31.9133 35.3988 32.0766 35.7253C32.2547 36.0518 32.5813 36.2744 32.9375 36.3189L36.5 36.7048V38.7825C36.5 40.1479 37.6133 41.2461 38.9641 41.2461H40.1367V74.2231L35.55 78.809C35.1195 79.2394 35.1195 79.9518 35.55 80.3822C35.9805 80.8125 36.693 80.8125 37.1234 80.3822L42.9867 74.5199C44.5453 72.9616 47.0836 72.9616 48.6422 74.5199C50.2008 76.0782 50.2008 78.6161 48.6422 80.1744L39.3945 89.4798C37.8359 91.0381 35.2977 91.0381 33.7391 89.4798C32.1805 87.9214 32.1805 85.3836 33.7391 83.8253L34.0063 83.5582C34.4367 83.1278 34.4367 82.4154 34.0063 81.985C33.5758 81.5546 32.8633 81.5546 32.4328 81.985L32.1656 82.2521C29.7312 84.6861 29.7312 88.6338 32.1656 91.0678C32.3883 91.2904 32.6109 91.4833 32.8484 91.6614L29.8797 100.774H28.1133C27.5047 100.774 27 101.278 27 101.887C27 102.495 27.5047 103 28.1133 103H101.887C102.495 103 103 102.495 103 101.887C103 101.264 102.495 100.759 101.887 100.759ZM54.9953 94.2141V89.8953H76.9492V94.2141H54.9953ZM72.9414 81.1242L61.5266 76.7016L71.7984 72.2789L72.9414 81.1242ZM71.368 68.9248L62.5359 64.6654L70.2695 60.406L71.368 68.9248ZM68.6664 48.1324L69.7648 56.577L63.575 52.5699L68.6664 48.1324ZM65.668 47.7911L63.0109 50.1063L63.3078 47.7911H65.668ZM62.432 54.4844L68.8297 58.6399L61.3484 62.7658L62.432 54.4844ZM60.9031 66.3425L69.8836 70.6761L59.775 75.0245L60.9031 66.3425ZM59.3594 78.245L71.457 82.9348L62.7734 87.6543C62.7586 87.6543 62.7586 87.6691 62.7586 87.6691H58.157L59.3594 78.245ZM67.4047 87.6691L73.3719 84.4338L73.7875 87.6691H67.4047ZM73.1344 45.1939C73.1344 45.372 72.9859 45.5055 72.8227 45.5055H59.1219C58.9438 45.5055 58.8102 45.3571 58.8102 45.1939V39.0942L73.1344 40.6377V45.1939ZM38.7414 38.7825V36.9422L43.8031 37.4913V38.7825C43.8031 38.9161 43.6992 39.02 43.5656 39.02H38.9789C38.8453 39.02 38.7414 38.9161 38.7414 38.7825ZM50.2453 81.7624C52.6797 79.3284 52.6797 75.3807 50.2453 72.9468C48.0781 70.78 44.768 70.5722 42.3781 72.1602V41.2461H43.5508C44.9164 41.2461 46.0148 40.1331 46.0148 38.7825V37.7288L56.5539 38.8567V45.1939C56.5539 46.6038 57.6969 47.7317 59.0922 47.7317H61.0367L55.8711 87.6691H54.4758C53.5258 87.6691 52.7391 88.4409 52.7391 89.4055V94.2141H50.6164C49.4586 94.2141 48.5234 95.1491 48.5234 96.3067V100.759H44.5898L41.3094 90.6819L50.2453 81.7624ZM32.2102 100.759L34.8523 92.6409C35.4164 92.8042 35.9805 92.8784 36.5594 92.8784C37.5688 92.8784 38.5633 92.6409 39.4688 92.1512L42.2742 100.759H32.2102ZM50.7797 100.759V96.4402H81.15V100.759H50.7797Z" fill="#8DBF88"/>
</svg>
