<svg width="130" height="130" viewBox="0 0 130 130" fill="none" xmlns="http://www.w3.org/2000/svg">
<circle cx="65" cy="65" r="63.5" fill="white" stroke="#8DBF88" stroke-width="3"/>
<path d="M55.0625 87.875H74.75C75.9564 87.875 76.9375 86.8939 76.9375 85.6875V81.3125C76.9375 80.1061 75.9564 79.125 74.75 79.125H55.0625C53.8561 79.125 52.875 80.1061 52.875 81.3125V85.6875C52.875 86.8939 53.8561 87.875 55.0625 87.875ZM55.0625 81.3125H74.75L74.7511 85.6875H55.0625V81.3125Z" fill="#8DBF88"/>
<path d="M98.8125 48.6323C98.8125 46.75 97.2813 45.2188 95.3989 45.2188C94.4867 45.2188 93.6292 45.5742 92.985 46.2184L89.5156 49.6878L88.3278 48.5H83.5V53.3278L84.6878 54.5156L82.6731 56.5303C82.0759 56.2864 81.4306 56.1562 80.7656 56.1562C79.4159 56.1562 78.1461 56.6812 77.1912 57.6372L71.1866 63.6419L70.515 60.9545C71.5792 60.2141 72.4859 59.268 73.1881 58.1764L74.2031 57.857C75.7147 57.3528 77.0338 56.3455 77.9164 55.0209C78.7072 53.8331 79.125 52.4528 79.125 51.0266V40.8438C79.125 35.4166 74.7084 31 69.2812 31H60.5312C55.1041 31 50.6875 35.4166 50.6875 40.8438V44.5428L47.753 46.0095C45.5152 47.1284 44.125 49.3772 44.125 51.8797V52.9209C42.9798 53.0336 41.9495 53.6352 41.3305 54.6261L32.1998 69.2364C31.4145 70.492 31 71.9391 31 73.4189C31 77.772 34.5405 81.3125 38.8936 81.3125H48.5V98.8125H92.25V79.8316C92.25 75.5878 90.4027 71.5705 87.1805 68.8088C86.475 68.2039 85.7148 67.6789 84.9186 67.2239L86.7812 65.3591C87.4867 64.6536 87.875 63.7163 87.875 62.7188C87.875 62.2091 87.7711 61.7147 87.5775 61.2597L97.8128 51.0462C98.457 50.402 98.8125 49.5445 98.8125 48.6323ZM84.4997 57.7969L92.25 50.0466L93.9814 51.778L86.2223 59.5195L84.4997 57.7969ZM85.6875 52.4222V50.6875H87.4222L87.9691 51.2344L86.2344 52.9691L85.6875 52.4222ZM48.1423 65.6806L51.2759 60.6002C51.6063 60.0336 51.7812 59.3872 51.7812 58.7309C51.7812 58.4203 51.7397 58.1152 51.6642 57.8209L53.097 56.3881C53.8266 57.04 54.6775 57.5464 55.628 57.8625L56.6255 58.1764C57.3266 59.268 58.2344 60.2141 59.2986 60.9545L58.5505 63.9459L48.1423 65.6806ZM55.1784 54.3056C55.2309 54.6633 55.302 55.0155 55.3928 55.36C55.1292 55.208 54.8798 55.0341 54.648 54.8361L55.1784 54.3056ZM59.1356 66.0656L62.7198 68.9334L57.25 70.9842V66.3795L59.1356 66.0656ZM57.25 73.3205L64.9062 70.4494L72.5625 73.3205V73.6562C72.5625 74.26 72.0714 74.75 71.4688 74.75H58.3438C57.7411 74.75 57.25 74.26 57.25 73.6562V73.3205ZM72.5625 70.9842L67.0927 68.9334L70.6714 66.07L72.5625 66.4036V70.9842ZM73.5633 64.3583L74.75 63.1716L76.4453 64.8669L73.5633 64.3583ZM69.1434 64.4906L64.9062 67.8802L60.6691 64.4906L61.287 62.0198C62.4081 62.4661 63.6277 62.7188 64.9062 62.7188C66.1848 62.7188 67.4044 62.4661 68.5255 62.0198L69.1434 64.4906ZM64.9062 60.5312C60.6844 60.5312 57.25 57.0969 57.25 52.875V50.6875C57.25 50.0148 57.0597 49.3761 56.7283 48.8106L57.7487 48.0811C58.3755 47.6327 58.8294 47.0092 59.1138 46.3125H72.5625V52.875C72.5625 57.0969 69.1281 60.5312 64.9062 60.5312ZM67.0938 41.9375V44.125H62.7188V41.9375H67.0938ZM69.2812 44.125V41.9375H76.9375V44.125H69.2812ZM76.0953 53.8069C75.6655 54.4522 75.0814 54.9794 74.4186 55.3622C74.6275 54.5659 74.75 53.7347 74.75 52.875V46.3125H76.9375V51.0266C76.9375 52.0186 76.6466 52.98 76.0953 53.8069ZM60.5312 33.1875H69.2812C73.1302 33.1875 76.3162 36.0455 76.85 39.75H52.9625C53.4963 36.0455 56.6823 33.1875 60.5312 33.1875ZM52.875 41.9375H60.5312V44.125H59.3478C59.0416 42.8727 57.9183 41.9375 56.573 41.9375C56.1311 41.9375 55.6881 42.0425 55.2922 42.2394L52.875 43.4491V41.9375ZM48.7308 47.9673L56.2711 44.1972C56.6998 43.9817 57.25 44.3241 57.25 44.8009C57.25 45.3948 56.9613 45.9559 56.4778 46.3005L50.052 50.8909L51.323 52.6716L54.9389 50.0881C55.0187 50.2773 55.0625 50.4808 55.0625 50.6875C55.0625 51.0944 54.8973 51.4936 54.6097 51.7812L50.4753 55.9156C50.32 55.7833 50.1581 55.6575 49.9809 55.5514L46.4066 53.4066C46.3759 53.388 46.3431 53.3759 46.3125 53.3584V51.8797C46.3125 50.2117 47.2389 48.7122 48.7308 47.9673ZM44.125 79.125V76.9375H41.9375V79.125H38.8936C37.7966 79.125 36.7805 78.7991 35.9098 78.2598L38.1695 76.7537L36.9566 74.9338L34.2648 76.7286C33.5933 75.7934 33.1875 74.6559 33.1875 73.4189C33.1875 72.5111 33.415 71.6273 33.8263 70.8245L37.0725 72.4477L38.0514 70.4909L34.9605 68.9455L38.7164 62.9364L43.5617 65.8436L44.6872 63.9678L39.8758 61.0803L43.1855 55.7844C43.6153 55.0964 44.5844 54.8634 45.28 55.2812L48.8544 57.4261C49.3105 57.6995 49.5938 58.1994 49.5938 58.7309C49.5938 59 49.5227 59.2647 49.4002 59.4747L48.2944 61.2684L45.8258 59.6223L44.6128 61.4423L47.1459 63.1311L43.5956 68.8875L40.24 67.2108L39.2611 69.1675L42.4417 70.7578L41.0067 73.0842L42.8683 74.2337L46.6177 68.1547L48.5 67.8375V71.4688H46.3125V73.6562H48.5V79.125H44.125ZM50.6875 67.4733L55.0625 66.7438V73.6562C55.0625 75.4653 56.5347 76.9375 58.3438 76.9375H71.4688C73.2778 76.9375 74.75 75.4653 74.75 73.6562V66.7897L79.125 67.5619V96.625H76.9375V92.25C76.9375 91.0436 75.9564 90.0625 74.75 90.0625H68.1875C66.9811 90.0625 66 91.0436 66 92.25V96.625H63.8125V92.25C63.8125 91.0436 62.8314 90.0625 61.625 90.0625H55.0625C53.8561 90.0625 52.875 91.0436 52.875 92.25V96.625H50.6875V67.4733ZM74.75 96.625H68.1875V92.25H74.75V96.625ZM61.625 96.625H55.0625V92.25H61.625V96.625ZM90.0625 79.8316V83.5H85.6875V79.125H90.0242C90.0373 79.3602 90.0625 79.5942 90.0625 79.8316ZM87.6836 72.5625H85.6875V74.75H88.9644C89.2816 75.4522 89.5266 76.185 89.7081 76.9375H85.6875C84.4811 76.9375 83.5 77.9186 83.5 79.125V83.5C83.5 84.7064 84.4811 85.6875 85.6875 85.6875H90.0625V92.25H85.6875V94.4375H90.0625V96.625H81.3125V90.0625H87.875V87.875H81.3125V68.0398C82.9389 68.5331 84.4527 69.3512 85.7564 70.468C86.487 71.0947 87.1269 71.8013 87.6836 72.5625ZM85.2347 63.8125L82.8175 66.2308C81.972 65.9147 81.0959 65.685 80.2045 65.533L76.2966 61.625L77.4844 60.4372L80.5392 63.492L82.0858 61.9455L79.0627 58.9223C80.1684 58.1195 81.8102 58.2005 82.7934 59.1838L85.2347 61.625C85.5223 61.9127 85.6875 62.3119 85.6875 62.7188C85.6875 63.1256 85.5223 63.5248 85.2347 63.8125ZM96.2663 49.4986L95.5302 50.2336L93.7966 48.5L94.5316 47.765C94.7634 47.5342 95.0708 47.4062 95.3989 47.4062C96.0748 47.4062 96.625 47.9564 96.625 48.6323C96.625 48.9605 96.497 49.2678 96.2663 49.4986Z" fill="#8DBF88"/>
</svg>
