<svg width="130" height="130" viewBox="0 0 130 130" fill="none" xmlns="http://www.w3.org/2000/svg">
<circle cx="65" cy="65" r="63.5" fill="white" stroke="#8DBF88" stroke-width="3"/>
<path d="M98.4729 49.6338C97.8475 49.6338 97.3405 50.1387 97.3405 50.7617V92.9904C97.3405 93.6709 96.7846 94.2246 96.1013 94.2246H34.1095C33.4262 94.2246 32.8702 93.6709 32.8702 92.9904V86.7051C32.8702 86.082 32.3632 85.5771 31.7379 85.5771C31.1125 85.5771 30.6055 86.082 30.6055 86.7051V92.9904C30.6055 94.9149 32.1774 96.4805 34.1095 96.4805H37.3761V101.368C37.3761 102.819 38.5614 104 40.0183 104H54.2108C55.6677 104 56.853 102.819 56.853 101.368V96.4805H72.8574V101.368C72.8574 102.819 74.0428 104 75.4996 104H89.6921C91.149 104 92.3344 102.819 92.3344 101.368V96.4805H96.1014C98.0336 96.4805 99.6055 94.9149 99.6055 92.9904V50.7617C99.6053 50.1387 99.0983 49.6338 98.4729 49.6338ZM54.5883 101.368C54.5883 101.576 54.4189 101.744 54.2108 101.744H40.0183C39.8102 101.744 39.6408 101.576 39.6408 101.368V96.4805H54.5883V101.368ZM90.0696 101.368C90.0696 101.576 89.9002 101.744 89.6921 101.744H75.4996C75.2915 101.744 75.1221 101.576 75.1221 101.368V96.4805H90.0696V101.368Z" fill="#8DBF88"/>
<path d="M96.1013 27H34.1095C32.1774 27 30.6055 28.5656 30.6055 30.4901V81.1406C30.6055 81.7637 31.1125 82.2686 31.7379 82.2686C32.3632 82.2686 32.8702 81.7637 32.8702 81.1406V30.4901C32.8702 29.8096 33.4262 29.2559 34.1095 29.2559H96.1014C96.7848 29.2559 97.3407 29.8096 97.3407 30.4901V45.3477C97.3407 45.9707 97.8477 46.4756 98.4731 46.4756C99.0985 46.4756 99.6055 45.9707 99.6055 45.3477V30.4901C99.6053 28.5656 98.0334 27 96.1013 27Z" fill="#8DBF88"/>
<path d="M35.6501 69.7347V76.984C35.6501 78.8419 37.0103 80.3884 38.7907 80.6896V84.4247C38.7907 86.3869 40.3934 87.9832 42.3633 87.9832H87.3476C89.3175 87.9832 90.9202 86.3869 90.9202 84.4247V39.0556C90.9202 37.0935 89.3175 35.4971 87.3476 35.4971H72.7518C72.1264 35.4971 71.6194 36.0019 71.6194 36.625C71.6194 37.2481 72.1264 37.7529 72.7518 37.7529H87.3476C88.0687 37.7529 88.6554 38.3373 88.6554 39.0556V84.4249C88.6554 85.1431 88.0687 85.7275 87.3476 85.7275H42.3633C41.6422 85.7275 41.0555 85.1431 41.0555 84.4249V80.6898C42.8359 80.3884 44.1961 78.8419 44.1961 76.9841V69.7349C44.1961 67.8769 42.8359 66.3305 41.0555 66.0292V57.4515C42.8359 57.1502 44.1961 55.6037 44.1961 53.7459V46.4966C44.1961 44.6387 42.8359 43.0922 41.0555 42.791V39.0556C41.0555 38.3373 41.6422 37.7529 42.3633 37.7529H66.2912C66.9166 37.7529 67.4236 37.2481 67.4236 36.625C67.4236 36.0019 66.9166 35.4971 66.2912 35.4971H42.3633C40.3934 35.4971 38.7907 37.0935 38.7907 39.0556V42.7907C37.0103 43.0921 35.6501 44.6386 35.6501 46.4963V53.7456C35.6501 55.6035 37.0103 57.15 38.7907 57.4512V66.0289C37.0103 66.3305 35.6501 67.8768 35.6501 69.7347ZM41.9314 69.7347V76.984C41.9314 77.8132 41.2541 78.4879 40.4215 78.4879H39.4247C38.5922 78.4879 37.9149 77.8132 37.9149 76.984V69.7347C37.9149 68.9054 38.5922 68.2308 39.4247 68.2308H40.4215C41.2541 68.2308 41.9314 68.9056 41.9314 69.7347ZM37.9149 53.7458V46.4965C37.9149 45.6672 38.5922 44.9926 39.4247 44.9926H40.4215C41.2541 44.9926 41.9314 45.6672 41.9314 46.4965V53.7458C41.9314 54.575 41.2541 55.2497 40.4215 55.2497H39.4247C38.5922 55.2497 37.9149 54.5749 37.9149 53.7458Z" fill="#8DBF88"/>
<path d="M77.4686 74.0034C77.9432 74.409 78.6581 74.355 79.0654 73.8823C81.9749 70.507 83.5773 66.1948 83.5773 61.7402C83.5773 51.4574 75.1786 43.0918 64.8552 43.0918C54.5318 43.0918 46.1332 51.4574 46.1332 61.7402C46.1332 72.023 54.5318 80.3887 64.8552 80.3887C68.3866 80.3887 71.8263 79.4041 74.8025 77.5413C75.332 77.2099 75.4916 76.5136 75.1589 75.9861C74.8261 75.4589 74.1272 75.3001 73.5975 75.6312C70.9828 77.2678 67.9598 78.1328 64.8552 78.1328C55.7806 78.1328 48.3979 70.7792 48.3979 61.7402C48.3979 52.7013 55.7806 45.3477 64.8552 45.3477C73.9298 45.3477 81.3125 52.7013 81.3125 61.7402C81.3125 65.656 79.9043 69.4462 77.3471 72.4129C76.9397 72.8854 76.9941 73.5976 77.4686 74.0034Z" fill="#8DBF88"/>
<path d="M76.5912 62.8682C77.2166 62.8682 77.7236 62.3633 77.7236 61.7402C77.7236 61.1172 77.2166 60.6123 76.5912 60.6123H72.24C72.0543 59.4011 71.5735 58.2858 70.8745 57.3397L73.9545 54.2718C74.3968 53.8313 74.3968 53.1171 73.9545 52.6768C73.5125 52.2361 72.7954 52.2363 72.3532 52.6766L69.2731 55.7445C68.3233 55.0483 67.2036 54.5693 65.9876 54.3845V50.0502C65.9876 49.4272 65.4805 48.9223 64.8552 48.9223C64.2298 48.9223 63.7228 49.4272 63.7228 50.0502V54.3845C62.5068 54.5695 61.3871 55.0483 60.4372 55.7446L57.3571 52.6766C56.9149 52.2363 56.1979 52.2361 55.7558 52.6768C55.3136 53.1173 55.3136 53.8315 55.7558 54.2718L58.8359 57.3397C58.1368 58.2858 57.6561 59.4012 57.4704 60.6123H53.1192C52.4938 60.6123 51.9868 61.1172 51.9868 61.7402C51.9868 62.3633 52.4938 62.8682 53.1192 62.8682H57.4704C57.6561 64.0794 58.1368 65.1947 58.8359 66.1408L55.7558 69.2086C55.3136 69.6491 55.3136 70.3633 55.7558 70.8037C56.198 71.2443 56.9149 71.2442 57.3571 70.8038L60.4372 67.7359C61.3871 68.432 62.5068 68.911 63.7228 69.096V73.4302C63.7228 74.0533 64.2298 74.5582 64.8552 74.5582C65.4805 74.5582 65.9876 74.0533 65.9876 73.4302V69.096C67.2036 68.911 68.3233 68.4322 69.2731 67.736L72.3532 70.8038C72.7954 71.2442 73.5125 71.2443 73.9545 70.8037C74.3968 70.3632 74.3968 69.649 73.9545 69.2086L70.8745 66.1408C71.5735 65.1947 72.0543 64.0794 72.24 62.8682H76.5912ZM64.855 66.9256C61.9845 66.9256 59.6492 64.5993 59.6492 61.7402C59.6492 58.8812 61.9845 56.5549 64.855 56.5549C67.7255 56.5549 70.061 58.8812 70.061 61.7402C70.061 64.5993 67.7255 66.9256 64.855 66.9256Z" fill="#8DBF88"/>
</svg>
