<svg width="134" height="145" viewBox="0 0 134 145" fill="none" xmlns="http://www.w3.org/2000/svg">
<circle cx="65.75" cy="80" r="63.5" fill="white" stroke="#8DBF88" stroke-width="3"/>
<path d="M94.3906 96.4062C94.375 96.3906 94.375 96.375 94.3594 96.3594C94.2969 96.25 94.2188 96.1406 94.1562 96.0312C94.125 95.9688 94.0781 95.9062 94.0312 95.8594C93.9844 95.7812 93.9375 95.7188 93.8906 95.6406C93.8281 95.5469 93.7656 95.4531 93.6875 95.375C93.6719 95.3438 93.6562 95.3281 93.625 95.2969C93.6094 95.2812 93.5938 95.2656 93.5781 95.2344C93.5 95.125 93.4219 95.0312 93.3281 94.9219C93.2969 94.8906 93.2656 94.8438 93.2344 94.8125C93.1562 94.7187 93.0625 94.6094 92.9844 94.5156C92.9531 94.4688 92.9062 94.4375 92.875 94.3906C92.7969 94.3125 92.7344 94.2344 92.6562 94.1562C92.6094 94.0938 92.5469 94.0312 92.5 93.9844C92.4531 93.9375 92.4219 93.9063 92.375 93.8594C90.75 92.2188 88.7656 91.0312 86.5156 90.3594C86.4844 90.3437 86.4375 90.3438 86.4062 90.3281L75.8125 88.3594C75.7969 88.3594 75.7812 88.3594 75.75 88.3594C75.25 88.2812 74.75 88.3438 74.2969 88.5469C73.9219 88.0938 73.6875 87.4688 73.6875 86.8906V84.9688C74.3594 84.5469 75 84.0625 75.6406 83.5156C78.2656 81.25 79.9219 78 80.2812 74.4375C82.2031 74.3438 83.75 72.75 83.75 70.7969V68.0625C83.75 66.9531 83.25 65.9375 82.4219 65.25V58.9688C86.25 57.0781 87.0781 54.875 87.0781 53.3281C87.0781 50.6562 84.5938 47.3281 80.6094 44.625C78.0469 42.9062 72.6875 40 65.5469 40C58.4062 40 53.0625 42.9062 50.5 44.6406C46.5156 47.3438 44.0312 50.6719 44.0312 53.3438C44.0312 54.8906 44.8594 57.0938 48.6875 58.9844V65.2656C47.8594 65.9531 47.3594 66.9688 47.3594 68.0781V70.8125C47.3594 72.7656 48.9062 74.3594 50.8281 74.4531C51.1875 78.0156 52.8438 81.2812 55.4688 83.5312C56.0938 84.0781 56.75 84.5469 57.4219 84.9844V86.9062C57.4219 87.4844 57.1719 88.1094 56.8125 88.5625C56.3438 88.3594 55.8125 88.2969 55.2969 88.3906L44.7031 90.3594C44.6562 90.3594 44.625 90.375 44.5938 90.3906C42.3438 91.0469 40.3594 92.25 38.7344 93.8906C38.6875 93.9375 38.6406 93.9844 38.6094 94.0156C38.5625 94.0781 38.5 94.125 38.4531 94.1875C38.375 94.2656 38.3125 94.3438 38.2344 94.4219C38.2031 94.4688 38.1719 94.5 38.125 94.5469C38.0312 94.6406 37.9531 94.75 37.875 94.8438C37.8438 94.875 37.8125 94.9219 37.7812 94.9531C37.7031 95.0625 37.6094 95.1563 37.5312 95.2656C37.5156 95.2813 37.5 95.2969 37.4844 95.3281C37.4688 95.3594 37.4531 95.375 37.4219 95.4062C37.3594 95.5 37.2969 95.5938 37.2188 95.6719C37.1719 95.75 37.125 95.8125 37.0781 95.8906C37.0312 95.9531 37 96.0156 36.9688 96.0625C36.8906 96.1719 36.8281 96.2812 36.7656 96.3906C36.75 96.4062 36.75 96.4219 36.7344 96.4375C35.4375 98.5469 34.75 100.969 34.75 103.5V104.922C34.75 105.562 35.2812 106.094 35.9219 106.094C36.5625 106.094 37.0938 105.562 37.0938 104.922V103.5C37.0938 102.359 37.2656 101.234 37.5938 100.172C38.2813 100.719 39.125 101.016 39.9844 101.016C40.125 101.016 40.2656 101.016 40.4062 101C41.4375 100.891 42.3594 100.391 43 99.5781L44.2812 98C44.9219 97.2031 45.2188 96.1875 45.1094 95.1562C45.0156 94.3438 44.6875 93.5938 44.1406 93C44.4844 92.8594 44.8281 92.7344 45.1719 92.6406L51.9375 91.3906L57.2969 98.8906C57.8281 99.6406 58.6719 100.062 59.5469 100.062C59.9062 100.062 60.2812 99.9844 60.6406 99.8438L61 99.6875L62.5625 101.5L60.3125 117.656H45.5938V108.156C45.5938 107.516 45.0625 106.984 44.4219 106.984C43.7812 106.984 43.25 107.516 43.25 108.156V117.656H38.5625C37.75 117.656 37.1094 117 37.1094 116.203V110.391C37.1094 109.75 36.5781 109.219 35.9375 109.219C35.2969 109.219 34.75 109.734 34.75 110.375V116.188C34.75 118.297 36.4531 120 38.5469 120H92.5625C94.6562 120 96.3594 118.297 96.3594 116.203V103.5C96.3594 100.969 95.6719 98.5469 94.3906 96.4062ZM42.4531 96.5156L41.1719 98.0938C40.9219 98.4062 40.5469 98.6094 40.1562 98.6562C39.75 98.7031 39.3594 98.5781 39.0469 98.3281L38.5625 97.9375C38.6719 97.75 38.7812 97.5625 38.8906 97.3906C38.9844 97.2344 39.0938 97.0781 39.2031 96.9375C39.2344 96.8906 39.2656 96.8438 39.2969 96.7969C39.3906 96.6719 39.4844 96.5469 39.5938 96.4219C39.625 96.3906 39.6406 96.3594 39.6719 96.3281C39.7812 96.1875 39.9062 96.0625 40.0156 95.9219C40.0469 95.8906 40.0781 95.8438 40.125 95.8125C40.25 95.6875 40.3594 95.5625 40.4844 95.4375C40.5 95.4219 40.5 95.4219 40.5156 95.4062C40.9688 94.9688 41.4531 94.5469 41.9844 94.1875L42.2344 94.3906C42.5469 94.6406 42.75 95.0156 42.7969 95.4062C42.8281 95.8125 42.7031 96.2031 42.4531 96.5156ZM88.8906 94.375L89.1406 94.1719C89.6719 94.5312 90.1562 94.9375 90.6094 95.3906C90.625 95.4062 90.625 95.4062 90.6406 95.4219C90.7656 95.5469 90.875 95.6719 91 95.7969C91.0312 95.8281 91.0625 95.875 91.1094 95.9062C91.2344 96.0312 91.3438 96.1719 91.4531 96.3125C91.4844 96.3438 91.5 96.375 91.5312 96.4062C91.625 96.5312 91.7344 96.6562 91.8281 96.7812C91.8594 96.8281 91.8906 96.875 91.9219 96.9219C92.0312 97.0781 92.125 97.2188 92.2344 97.375C92.3438 97.5625 92.4531 97.7344 92.5625 97.9219L92.0781 98.3125C91.7656 98.5625 91.3594 98.6875 90.9688 98.6406C90.5625 98.5937 90.2031 98.4062 89.9531 98.0781L88.6719 96.5C88.125 95.875 88.2344 94.9062 88.8906 94.375ZM74.8906 90.9375L75.2031 90.7031C75.25 90.6562 75.3281 90.6406 75.3906 90.6562L76.625 90.8906L71.8906 97.5C71.7656 97.6719 71.5625 97.7188 71.375 97.6406L67.8906 96.1562L74.8906 90.9375ZM65.5469 95L58.7188 89.8906C59.3594 89.0469 59.75 87.9688 59.75 86.8906V86.2031C61.5625 86.9531 63.4844 87.3594 65.5312 87.375H65.5469H65.5625C67.6094 87.3594 69.5312 86.9531 71.3438 86.2031V86.8906C71.3438 87.9688 71.7344 89.0469 72.375 89.8906L65.5469 95ZM67.8438 98.7031L66.7812 99.9375H64.3594L63.2969 98.7031L65.5781 97.7344L67.8438 98.7031ZM48.6875 56.3125C47.1875 55.3906 46.375 54.3594 46.375 53.3438C46.375 51.2344 49.2031 48.3594 51.8281 46.5781C54.1562 45 59.0469 42.3438 65.5469 42.3438C72.0469 42.3438 76.9375 45 79.2812 46.5781C81.9062 48.3594 84.7344 51.2344 84.7344 53.3438C84.7344 54.3594 83.9219 55.3906 82.4219 56.3125V54.1875C82.4219 52.5312 81.2969 51.0938 79.7031 50.6719C76.6562 49.8906 70.6875 48.5938 64.8281 48.5938H64.8125C59.7344 48.5938 54.6875 49.7188 51.3438 50.6562C49.7812 51.0937 48.7031 52.5312 48.7031 54.1406V56.3125H48.6875ZM52.7656 60.4219C52.75 60.4062 52.7344 60.4062 52.7188 60.3906C52.6406 60.3438 52.5625 60.2969 52.5 60.25C52.4688 60.2344 52.4375 60.2031 52.4219 60.1875C52.3594 60.1406 52.3125 60.1094 52.25 60.0625C52.2188 60.0312 52.1719 60 52.1406 59.9688C52.0938 59.9375 52.0625 59.9062 52.0156 59.8594C51.9688 59.8281 51.9375 59.7812 51.8906 59.75C51.8594 59.7188 51.8281 59.6875 51.7969 59.6719C51.75 59.625 51.7031 59.5781 51.6719 59.5469C51.6562 59.5312 51.625 59.5 51.6094 59.4844H71.2969C71.9375 59.4844 72.4688 58.9531 72.4688 58.3125C72.4688 57.6719 71.9375 57.1406 71.2969 57.1406H51.0312V54.1406C51.0312 53.5781 51.4219 53.0625 51.9688 52.9062C55.1719 52 59.9844 50.9375 64.8125 50.9375H64.8281C70.4375 50.9375 76.1875 52.2031 79.125 52.9375C79.6875 53.0781 80.0781 53.5937 80.0781 54.1719V57.125H76.9375C76.2969 57.125 75.7656 57.6562 75.7656 58.2969C75.7656 58.9375 76.2969 59.4688 76.9375 59.4688H79.5312C79.5156 59.4844 79.4844 59.5156 79.4688 59.5312C79.4219 59.5781 79.3906 59.625 79.3438 59.6562C79.3125 59.6875 79.2812 59.7188 79.25 59.7344C79.2031 59.7656 79.1719 59.8125 79.125 59.8438C79.0781 59.875 79.0469 59.9062 79 59.9531C78.9688 59.9844 78.9219 60.0156 78.8906 60.0469C78.8281 60.0938 78.7812 60.125 78.7188 60.1719C78.6875 60.1875 78.6562 60.2188 78.6406 60.2344C78.5625 60.2812 78.5 60.3281 78.4219 60.375C78.4062 60.3906 78.3906 60.3906 78.375 60.4062C77.8906 60.7188 77.3125 61.0156 76.6406 61.2812C76.625 61.2812 76.6094 61.2969 76.5938 61.2969C74.0781 62.3281 70.3125 63.1094 65.5625 63.1094C60.8125 63.1094 57.0469 62.3281 54.5312 61.2969C54.5156 61.2969 54.5 61.2812 54.4844 61.2812C53.8281 61.0312 53.25 60.7344 52.7656 60.4219ZM52.875 63.1562V65.4375C52.2344 65.1094 51.5781 64.9219 51.0469 64.8281V62.1094C51.5469 62.4531 52.1406 62.8125 52.875 63.1562ZM78.2344 63.1562C78.9531 62.8125 79.5625 62.4688 80.0625 62.1094V64.8281C79.5312 64.9219 78.875 65.1094 78.2344 65.4375V63.1562ZM57 81.75C54.5938 79.6875 53.1875 76.5781 53.1094 73.25C53.0938 72.6094 52.5781 72.1094 51.9375 72.1094H51C50.2812 72.1094 49.7031 71.5312 49.7031 70.8125V68.0781C49.7031 67.6875 49.875 67.3281 50.1719 67.0781C50.5781 67.1094 51.3594 67.2344 52.0156 67.6562L52.0312 67.6719C52.125 67.7344 52.2188 67.7969 52.2969 67.875C52.3125 67.8906 52.3125 67.8906 52.3281 67.9062C52.375 67.9375 52.4062 67.9844 52.4531 68.0156C52.4844 68.0469 52.5312 68.0781 52.5625 68.1094C52.5781 68.125 52.5781 68.125 52.5938 68.1406C52.625 68.1563 52.6562 68.1875 52.6875 68.2031C52.7031 68.2188 52.7031 68.2188 52.7188 68.2188C52.7656 68.25 52.7969 68.2656 52.8438 68.2969C52.8906 68.3125 52.9219 68.3438 52.9688 68.3594C52.9844 68.3594 53 68.375 53 68.375C53.0312 68.3906 53.0625 68.4062 53.0938 68.4062C53.1094 68.4062 53.125 68.4219 53.125 68.4219C53.1719 68.4375 53.2188 68.4531 53.2656 68.4531C53.3125 68.4688 53.3594 68.4688 53.4062 68.4688C53.4219 68.4688 53.4375 68.4688 53.4375 68.4688C53.4688 68.4688 53.5156 68.4688 53.5469 68.4688C53.5625 68.4688 53.5625 68.4688 53.5781 68.4688H53.5938C53.6406 68.4688 53.6875 68.4688 53.7344 68.4688C53.7812 68.4688 53.8281 68.4531 53.875 68.4531C53.8906 68.4531 53.9062 68.4531 53.9219 68.4375C53.9531 68.4375 53.9844 68.4219 54.0312 68.4062C54.0469 68.4062 54.0625 68.4062 54.0781 68.3906C54.125 68.375 54.1719 68.3594 54.2188 68.3438C54.8281 68.0937 55.2188 67.5 55.2188 66.8438V64.0469C58.2344 65 61.9531 65.4844 65.5625 65.4844C69.1719 65.4844 72.8906 65 75.9062 64.0469V66.8438C75.9062 67.5 76.2969 68.0781 76.9062 68.3438C76.9531 68.3594 77 68.375 77.0469 68.3906C77.0625 68.3906 77.0781 68.3906 77.0938 68.4062C77.125 68.4219 77.1719 68.4219 77.2031 68.4375C77.2188 68.4375 77.2344 68.4375 77.2344 68.4531C77.3281 68.4688 77.4219 68.4844 77.5156 68.4844H77.5312H77.5469C77.5781 68.4844 77.625 68.4844 77.6562 68.4844C77.6719 68.4844 77.6875 68.4844 77.6875 68.4844C77.7812 68.4688 77.875 68.4531 77.9688 68.4375C77.9844 68.4375 78 68.4375 78 68.4219C78.0312 68.4062 78.0625 68.4062 78.0938 68.3906C78.1094 68.3906 78.125 68.375 78.125 68.375C78.1719 68.3594 78.2188 68.3438 78.25 68.3125C78.2969 68.2969 78.3281 68.2656 78.375 68.2344C78.3906 68.2344 78.3906 68.2188 78.4062 68.2188C78.4375 68.2031 78.4688 68.1719 78.4844 68.1562C78.5 68.1406 78.5 68.1406 78.5156 68.125C78.5469 68.0938 78.5937 68.0625 78.625 68.0312C78.6719 67.9844 78.7031 67.9531 78.75 67.9219C78.7656 67.9062 78.7656 67.9062 78.7812 67.8906C78.8125 67.8594 78.8594 67.8281 78.9062 67.7969C78.9062 67.7969 78.9062 67.7969 78.9219 67.7812C78.9688 67.75 79.0156 67.7188 79.0469 67.6875C79.0625 67.6719 79.0781 67.6719 79.0781 67.6719C79.125 67.6406 79.1562 67.625 79.2031 67.5938C79.2031 67.5938 79.2188 67.5938 79.2188 67.5781C79.2656 67.5469 79.3125 67.5312 79.3594 67.5C79.375 67.5 79.375 67.4844 79.3906 67.4844C79.4375 67.4687 79.4688 67.4375 79.5156 67.4219H79.5312C79.5781 67.4062 79.625 67.375 79.6719 67.3594C79.6875 67.3594 79.6875 67.3594 79.7031 67.3438C79.75 67.3281 79.7969 67.3125 79.8438 67.2969C79.8906 67.2812 79.9375 67.2656 80 67.25C80.3594 67.1406 80.6875 67.1094 80.9062 67.0781C81.2031 67.3281 81.375 67.6875 81.375 68.0781V70.8125C81.375 71.5312 80.7969 72.1094 80.0781 72.1094H79.1406C78.5 72.1094 77.9844 72.625 77.9688 73.25C77.8906 76.5781 76.4844 79.6875 74.0781 81.75C71.5938 83.8906 68.7031 85 65.5156 85.0312C62.3594 85 59.4844 83.8906 57 81.75ZM59.7344 97.6562C59.5469 97.7344 59.3281 97.6719 59.2188 97.5156L54.4844 90.9062L55.7188 90.6719C55.7812 90.6562 55.8594 90.6719 55.9062 90.7188L56.2188 90.9531L63.2188 96.1875L59.7344 97.6562ZM62.6875 117.656L64.8281 102.281H66.2969L68.4375 117.656H62.6875ZM92.5625 117.656H87.875V108.156C87.875 107.516 87.3438 106.984 86.7031 106.984C86.0625 106.984 85.5312 107.516 85.5312 108.156V117.656H70.7969L68.5469 101.484L70.1094 99.6719L70.4688 99.8281C70.8281 99.9844 71.2031 100.047 71.5625 100.047C72.4375 100.047 73.2812 99.6406 73.8125 98.875L79.1719 91.375L85.9375 92.625C86.2969 92.7344 86.6406 92.8594 86.9688 92.9844C85.7344 94.375 85.6406 96.5 86.8438 97.9844L88.125 99.5625C88.7656 100.359 89.6875 100.875 90.7188 100.984C90.8594 101 91 101 91.1406 101C92.0156 101 92.8438 100.703 93.5312 100.156C93.8594 101.219 94.0312 102.344 94.0312 103.484V116.188C94.0156 117 93.3594 117.656 92.5625 117.656ZM81.5625 106.984H75.375C74.3125 106.984 73.4531 107.844 73.4531 108.906V112.188C73.4531 113.25 74.3125 114.109 75.375 114.109H81.5469C82.6094 114.109 83.4688 113.25 83.4688 112.188V108.906C83.4688 107.844 82.6094 106.984 81.5625 106.984ZM75.8125 111.75V109.312H81.125V111.75H75.8125ZM55.7344 106.984H49.5469C48.4844 106.984 47.625 107.844 47.625 108.906V112.188C47.625 113.25 48.4844 114.109 49.5469 114.109H55.7188C56.7812 114.109 57.6406 113.25 57.6406 112.188V108.906C57.6406 107.844 56.7812 106.984 55.7344 106.984ZM55.2969 111.75H49.9844V109.312H55.2969V111.75Z" fill="#8DBF88"/>
</svg>
