<svg width="130" height="131" viewBox="0 0 130 131" fill="none" xmlns="http://www.w3.org/2000/svg">
<circle cx="65" cy="65.5" r="63.5" fill="white" stroke="#8DBF88" stroke-width="3"/>
<path d="M69.4738 90.1069C68.6552 87.2419 66.3407 85.1109 63.4194 84.5323L57.0827 83.2621V82.9657C59.1714 81.752 60.7238 79.7339 61.3165 77.3206C63.4052 76.9254 64.9859 75.0907 64.9859 72.8891V67.2439C64.9859 60.3992 59.4113 54.8246 52.5665 54.8246C45.7218 54.8246 40.1472 60.3992 40.1472 67.2439V72.8891C40.1472 75.0907 41.7278 76.9113 43.8165 77.3206C44.4093 79.7198 45.9617 81.752 48.0504 82.9657V83.2621L41.7137 84.5323C38.7923 85.1109 36.4778 87.256 35.6593 90.1069L34.121 95.4698H70.9839L69.4738 90.1069ZM61.6129 74.8508V70.9556C62.2903 71.3508 62.7419 72.0706 62.7419 72.9032C62.7419 73.7359 62.2903 74.4556 61.6129 74.8508ZM43.5484 74.8508C42.871 74.4556 42.4194 73.7359 42.4194 72.9032C42.4194 72.0706 42.871 71.3508 43.5484 70.9556V74.8508ZM42.4194 69.0081V67.2581C42.4194 61.6552 46.9778 57.0968 52.5806 57.0968C58.1835 57.0968 62.7419 61.6552 62.7419 67.2581V69.0081C62.0786 68.6129 61.3165 68.3871 60.4839 68.3871C57.873 68.3871 55.4173 67.371 53.5685 65.5222L52.5806 64.5202L51.5927 65.5081C49.744 67.3569 47.2883 68.373 44.6774 68.373C43.8448 68.3871 43.0827 68.627 42.4194 69.0081ZM45.8065 75.1613V70.5887C48.3185 70.3629 50.6754 69.3468 52.5806 67.6814C54.4859 69.3468 56.8427 70.3488 59.3548 70.5887V75.1613C59.3548 78.9012 56.3206 81.9355 52.5806 81.9355C48.8407 81.9355 45.8065 78.9012 45.8065 75.1613ZM54.8387 83.8972V84.1936C54.8387 85.4355 53.8226 86.4516 52.5806 86.4516C51.3387 86.4516 50.3226 85.4355 50.3226 84.1936V83.8972C51.0423 84.0806 51.8044 84.1936 52.5806 84.1936C53.3569 84.1936 54.119 84.0806 54.8387 83.8972ZM62.4879 93.2258L61.5706 89.5706L59.3831 90.121L60.1593 93.2399H44.9879L45.7641 90.121L43.5766 89.5706L42.6734 93.2258H37.1411L37.8468 90.7278C38.4254 88.6814 40.0907 87.1573 42.1653 86.748L48.2762 85.5202C48.8548 87.3548 50.5484 88.7097 52.5665 88.7097C54.5847 88.7097 56.2923 87.3689 56.8569 85.5202L62.9677 86.748C65.0565 87.1714 66.7077 88.6956 67.2863 90.7278L67.9919 93.2258H62.4879ZM94.3548 43.5484H76.2903V30H53.7097V43.5484H35.6452C32.5262 43.5484 30 46.0746 30 49.1935V94.3548C30 97.4738 32.5262 100 35.6452 100H94.3548C97.4738 100 100 97.4738 100 94.3548V49.1935C100 46.0746 97.4738 43.5484 94.3548 43.5484ZM60.4839 32.2581H69.5161V43.5484H71.7742V32.2581H74.0323V50.3226H71.7742V45.8065H69.5161V50.3226H60.4839V32.2581ZM55.9677 32.2581H58.2258V50.3226H55.9677V32.2581ZM97.7419 94.3548C97.7419 96.2177 96.2177 97.7419 94.3548 97.7419H35.6452C33.7823 97.7419 32.2581 96.2177 32.2581 94.3548V49.1935C32.2581 47.3306 33.7823 45.8065 35.6452 45.8065H53.7097V50.3226H51.4516V52.5806H78.5484V50.3226H76.2903V45.8065H94.3548C96.2177 45.8065 97.7419 47.3306 97.7419 49.1935V94.3548ZM69.5161 61.6129H95.4839V63.871H69.5161V61.6129ZM69.5161 68.3871H71.7742V70.6452H69.5161V68.3871ZM74.0323 68.3871H95.4839V70.6452H74.0323V68.3871ZM69.5161 75.1613H95.4839V77.4194H69.5161V75.1613ZM69.5161 81.9355H90.9677V84.1936H69.5161V81.9355ZM93.2258 81.9355H95.4839V84.1936H93.2258V81.9355Z" fill="#8DBF88"/>
</svg>
