<svg width="130" height="130" viewBox="0 0 130 130" fill="none" xmlns="http://www.w3.org/2000/svg">
<circle cx="65" cy="65" r="63.5" fill="white" stroke="#8DBF88" stroke-width="3"/>
<path d="M104.4 46.55L96.7333 41.4333L92.8833 32.4667C92.7667 32.2 92.5667 31.9667 92.3 31.8333L80.3 25.1667C80.1 25.05 79.8833 25 79.65 25H57C56.7667 25 56.55 25.05 56.35 25.1667L44.35 31.8333C44.0833 31.9833 43.8833 32.2 43.7667 32.4667L39.7667 41.8C39.7 41.9667 39.6667 42.15 39.6667 42.3333V49H37V46.3333H34.3333V49H30.3333V46.3333H27.6667V49H25V51.6667H27.6667V54.3333H25V57H103.667C104.4 57 105 56.4 105 55.6667V47.6667C105 47.2167 104.783 46.8 104.4 46.55ZM74.3333 44.8167L79.6667 48.3667V54.3333H74.3333V44.8167ZM82.3333 49H94.3333V54.3333H82.3333V49ZM81.4 46.3333L77.4 43.6667H95.2667L99.2667 46.3333H81.4ZM93.65 41H73.8833L71.0333 34.3333H90.8L93.65 41ZM79.3167 27.6667L86.5167 31.6667H69.35L62.15 27.6667H79.3167ZM46.05 33.95L57 27.8667L67.95 33.95L71.6667 42.6167V54.3333H63.6667V45C63.6667 44.2667 63.0667 43.6667 62.3333 43.6667H51.6667C50.9333 43.6667 50.3333 44.2667 50.3333 45V54.3333H42.3333V42.6L46.05 33.95ZM58.3333 46.3333H61V54.3333H58.3333V46.3333ZM55.6667 54.3333H53V46.3333H55.6667V54.3333ZM39.6667 51.6667V54.3333H37V51.6667H39.6667ZM30.3333 51.6667H34.3333V54.3333H30.3333V51.6667ZM97 54.3333V49H102.333V54.3333H97ZM47.6667 35.6667H50.3333V38.3333H47.6667V35.6667ZM63.6667 35.6667H66.3333V38.3333H63.6667V35.6667ZM55.6667 30.3333H58.3333V33H55.6667V30.3333ZM41 83.6667C38.7833 83.6667 37 85.45 37 87.6667C37 89.8833 38.7833 91.6667 41 91.6667C43.2167 91.6667 45 89.8833 45 87.6667C45 85.4667 43.2 83.6667 41 83.6667ZM41 89C40.2667 89 39.6667 88.4 39.6667 87.6667C39.6667 86.9333 40.2667 86.3333 41 86.3333C41.7333 86.3333 42.3333 86.9333 42.3333 87.6667C42.3333 88.4 41.7333 89 41 89ZM69 89C69.7333 89 70.3333 89.6 70.3333 90.3333C70.3333 91.0667 69.7333 91.6667 69 91.6667C68.2667 91.6667 67.6667 91.0667 67.6667 90.3333C67.6667 89.6 68.2667 89 69 89ZM75.6667 90.3333C75.6667 87.6833 74.1 85.2833 71.6667 84.2333V78.3333C71.6667 77.6667 71.1833 77.1 70.5167 77.0167L69 76.8V73H66.3333V76.4167L61.1833 75.6833C60.8 75.6333 60.4167 75.75 60.1167 76C60.0833 76.0333 60.05 76.0667 60.0167 76.1L58.7 75.2333L59.5 73.6167L57.1167 72.4167L54.45 77.75L56.8333 78.95L57.4833 77.6333L59.6333 79.0667V82.3333H53.1833C52.9667 81.8333 52.7167 81.35 52.4333 80.8667L50.2667 70.0667C50.15 69.45 49.6 69 48.9667 69H43.6333C42.9 69 42.3 69.6 42.3 70.3333V74.4C41.85 74.35 41.4167 74.3333 40.9667 74.3333C39.45 74.3333 37.95 74.5833 36.5167 75.1L37.4 77.6167C38.55 77.2167 39.75 77 40.95 77.0167C44.65 77.0167 48.0833 78.9167 50.0167 82.0667C50.4167 82.7167 50.75 83.4 51 84.1333C51.6667 86.0333 51.7833 88.0833 51.3333 90.0667C51.1667 90.7833 51.6167 91.5 52.3333 91.6667C52.4333 91.6833 52.5333 91.7 52.6333 91.7H62.4C62.6 92.6667 63.0167 93.5833 63.6 94.3667H47.45C51.1333 90.7667 51.2 84.85 47.6 81.1667C44 77.4833 38.0833 77.4167 34.4 81.0167C30.7167 84.6167 30.65 90.5333 34.25 94.2167C34.3 94.2667 34.35 94.3167 34.4 94.3667H25V97.0333H105V94.3667H74.3333C75.2 93.1833 75.6667 91.7833 75.6667 90.3333ZM34.3333 87.6667C34.3333 83.9833 37.3167 81 41 81C44.6833 81 47.6667 83.9833 47.6667 87.6667C47.6667 91.35 44.6833 94.3333 41 94.3333C37.3167 94.3333 34.3333 91.35 34.3333 87.6667ZM45 74.95V71.6667H47.9L48.9667 76.9833C47.7667 76.1 46.4333 75.4 45 74.95ZM54.0667 85H61C61.7333 85 62.3333 84.4 62.3333 83.6667V78.5333L69 79.4833V83.6667C65.8333 83.6667 63.1 85.9 62.4667 89H54.2667C54.3167 88.55 54.3333 88.1167 54.3333 87.6667C54.3333 86.7667 54.25 85.8833 54.0667 85ZM65 90.3333C65 88.1167 66.7833 86.3333 69 86.3333C71.2167 86.3333 73 88.1167 73 90.3333C73 92.55 71.2167 94.3333 69 94.3333C66.8 94.3333 65 92.5333 65 90.3333ZM25 102.333H105V105H25V102.333ZM25 62.3333H105V65H25V62.3333ZM71.6667 70.3333H105V73H71.6667V70.3333ZM25 70.3333H39.6667V73H25V70.3333ZM74.3333 78.3333H105V81H74.3333V78.3333ZM25 78.3333H31.6667V81H25V78.3333ZM78.3333 86.3333H105V89H78.3333V86.3333ZM25 86.3333H29V89H25V86.3333Z" fill="#8DBF88"/>
</svg>
