<svg width="130" height="130" viewBox="0 0 130 130" fill="none" xmlns="http://www.w3.org/2000/svg">
<circle cx="65" cy="65" r="63.5" fill="white" stroke="#8DBF88" stroke-width="3"/>
<path d="M47.6667 70.3333H50.3333V73H47.6667V70.3333ZM53 70.3333H55.6667V73H53V70.3333ZM58.3333 70.3333H61V73H58.3333V70.3333ZM47.6667 75.6667H50.3333V78.3333H47.6667V75.6667ZM53 75.6667H55.6667V78.3333H53V75.6667ZM58.3333 75.6667H61V78.3333H58.3333V75.6667ZM63.6667 75.6667H66.3333V78.3333H63.6667V75.6667ZM69 75.6667H71.6667V78.3333H69V75.6667ZM47.6667 81H50.3333V83.6667H47.6667V81ZM53 81H55.6667V83.6667H53V81ZM58.3333 81H61V83.6667H58.3333V81ZM63.6667 81H66.3333V83.6667H63.6667V81ZM69 81H71.6667V83.6667H69V81ZM47.6667 86.3333H50.3333V89H47.6667V86.3333ZM53 86.3333H55.6667V89H53V86.3333ZM58.3333 86.3333H61V89H58.3333V86.3333ZM63.6667 86.3333H66.3333V89H63.6667V86.3333ZM69 86.3333H71.6667V89H69V86.3333ZM47.6667 91.6667H50.3333V94.3333H47.6667V91.6667ZM53 91.6667H55.6667V94.3333H53V91.6667ZM58.3333 91.6667H61V94.3333H58.3333V91.6667ZM63.6667 91.6667H66.3333V94.3333H63.6667V91.6667ZM69 91.6667H71.6667V94.3333H69V91.6667ZM47.6667 97H50.3333V99.6667H47.6667V97ZM53 97H55.6667V99.6667H53V97ZM58.3333 97H61V99.6667H58.3333V97ZM63.6667 97H66.3333V99.6667H63.6667V97ZM69 97H71.6667V99.6667H69V97ZM103.667 29H94.3333V26.3333C94.3333 25.6 93.7333 25 93 25H79.6667C78.9333 25 78.3333 25.6 78.3333 26.3333V29H26.3333C25.6 29 25 29.6 25 30.3333V35.6667C25 36.4 25.6 37 26.3333 37H30.3333V62.3333C30.3333 63.0667 30.9333 63.6667 31.6667 63.6667C32.4 63.6667 33 64.2667 33 65C33 65.7333 32.4 66.3333 31.6667 66.3333C30.9333 66.3333 30.3333 65.7333 30.3333 65H27.6667C27.6667 65.9833 28.0333 66.9167 28.6833 67.65L25.2667 72.2L25.2833 72.2167C25.1 72.4333 25 72.7167 25 73V78.3333C25 78.6833 25.1333 79.0333 25.3833 79.2833L28.05 81.95C28.3 82.2 28.6333 82.3333 29 82.3333H34.3333C34.6833 82.3333 35.0333 82.2 35.2833 81.95L37.95 79.2833C38.2 79.0333 38.3333 78.7 38.3333 78.3333V73C38.3333 72.7167 38.2333 72.4333 38.05 72.2167L38.0667 72.2L34.65 67.6333C35.5333 66.65 35.8833 65.2667 35.55 63.9833C35.2167 62.7 34.2667 61.65 33.0167 61.2167V37H78.35V38.3333C78.35 39.0667 78.95 39.6667 79.6833 39.6667H82.35V102.333H77.0167V49H74.35V54.3333H66.35V51.6667H63.6833V54.3333H55.6833V53H53.0167V54.3333H45.0167V50.3333H62.35V47.6667H45V42.3333H42.3333V102.333H40.2167L33.9333 96.05C33.4167 95.5333 32.5667 95.5333 32.05 96.05L25.7833 102.333H25V105H105V102.333H103.967C104.9 101.317 105.233 99.8667 104.85 98.5333C104.45 97.2 103.4 96.1667 102.05 95.8167C102.733 94.15 102.2 92.2333 100.767 91.1333C99.3333 90.0333 97.35 90.0333 95.9167 91.1333C94.4833 92.2333 93.9667 94.15 94.6333 95.8167C93.2833 96.1667 92.2333 97.2 91.8333 98.5333C91.4333 99.8667 91.7667 101.3 92.7167 102.333H90.3333V39.6667H93C93.7333 39.6667 94.3333 39.0667 94.3333 38.3333V37H103.667C104.4 37 105 36.4 105 35.6667V30.3333C105 29.6 104.4 29 103.667 29ZM32.3333 69L34.3333 71.6667H29L31 69H32.3333ZM35.6667 77.7833L33.7833 79.6667H29.55L27.6667 77.7833V74.3333H35.6667V77.7833ZM97.9333 31.6667L94.3333 34.0667V31.6667H97.9333ZM81 27.6667H86.3333V33H81V27.6667ZM45 31.9333L48.6 34.3333H41.4L45 31.9333ZM37 34.0667L33.4 31.6667H40.6L37 34.0667ZM49.4 31.6667H56.6L53 34.0667L49.4 31.6667ZM61 31.9333L64.6 34.3333H57.4L61 31.9333ZM65.4 31.6667H72.6L69 34.0667L65.4 31.6667ZM27.6667 31.6667H28.6L32.6 34.3333H27.6667V31.6667ZM73.4 34.3333L77.4 31.6667H78.3333V34.3333H73.4ZM87.6667 97.9333L85.2667 94.3333L87.6667 90.7333V97.9333ZM87.6667 65.9333L85.2667 62.3333L87.6667 58.7333V65.9333ZM85 66.7333L87.4 70.3333L85 73.9333V66.7333ZM85 57.9333V50.7333L87.4 54.3333L85 57.9333ZM85 82.7333L87.4 86.3333L85 89.9333V82.7333ZM87.6667 81.9333L85.2667 78.3333L87.6667 74.7333V81.9333ZM85.2667 46.3333L87.6667 42.7333V49.9333L85.2667 46.3333ZM85 41.9333V39.6667H86.5167L85 41.9333ZM74.3333 57V70.3333H66.3333V57H74.3333ZM63.6667 57V68.4667L60.6 65.4333C60.35 65.1833 60.0167 65.05 59.6667 65.05H55.6667V57H63.6667ZM53 57V59.2167H45V57H53ZM33 98.8833L36.45 102.333H29.55L33 98.8833ZM45 102.333V61.8833H53V66.3833C53 67.1167 53.6 67.7167 54.3333 67.7167H59.1167L64.0667 72.6167C64.3167 72.8667 64.65 73 65 73H74.3333V102.333H45ZM85 98.7333L87.4 102.333H85V98.7333ZM101 101C100.267 101 99.6667 100.4 99.6667 99.6667C99.6667 98.9333 100.267 98.3333 101 98.3333C101.733 98.3333 102.333 98.9333 102.333 99.6667C102.333 100.4 101.733 101 101 101ZM98.3333 93C99.0667 93 99.6667 93.6 99.6667 94.3333C99.6667 95.0667 99.0667 95.6667 98.3333 95.6667C97.6 95.6667 97 95.0667 97 94.3333C97 93.6 97.6 93 98.3333 93ZM95.6667 98.3333C96.4 98.3333 97 98.9333 97 99.6667C97 100.4 96.4 101 95.6667 101C94.9333 101 94.3333 100.4 94.3333 99.6667C94.3333 98.9333 94.9333 98.3333 95.6667 98.3333ZM91.6667 37H81V35.6667H87.6667C88.4 35.6667 89 35.0667 89 34.3333V27.6667H91.6667V37ZM98.7333 34.3333L102.333 31.9333V34.3333H98.7333Z" fill="#8DBF88"/>
</svg>
