<svg width="130" height="130" viewBox="0 0 130 130" fill="none" xmlns="http://www.w3.org/2000/svg">
<circle cx="65" cy="65" r="63.5" fill="white" stroke="#8DBF88" stroke-width="3"/>
<path d="M27.4736 47.0951C27.4466 47.2576 27.433 47.42 27.4195 47.569V50.8589C27.4195 52.2127 28.2724 53.4312 29.5315 53.9051V58.7519C29.5315 60.3765 30.8177 61.7033 32.4288 61.7846V89.7555C30.8042 89.8367 29.5315 91.1635 29.5315 92.7881V97.6214C28.2589 98.1088 27.4195 99.3273 27.4195 100.695V103.917C27.4195 104.513 27.9069 105 28.5026 105H101.828C102.424 105 102.911 104.513 102.911 103.917V100.681C102.911 99.3138 102.072 98.0953 100.799 97.6079V92.7475C100.799 91.1229 99.5129 89.7961 97.9018 89.7148V61.7846C99.5264 61.7033 100.799 60.3765 100.799 58.7519V53.9051C102.072 53.4312 102.911 52.2127 102.911 50.8589V47.596C102.911 47.4336 102.884 47.2711 102.857 47.1222C103.398 47.3659 104.048 47.1222 104.279 46.5671C104.522 46.0256 104.279 45.3757 103.723 45.1455L65.6662 25.1218C65.3548 24.9594 64.9622 24.9594 64.6508 25.1218L26.5801 45.1185C26.0521 45.4028 25.849 46.0526 26.1198 46.5942C26.377 47.068 26.9592 47.2846 27.4736 47.0951ZM31.7112 55.7869V54.1081H44.2481V55.7734L31.7112 55.7869ZM59.628 61.7846V89.7555C58.0033 89.8367 56.7307 91.1635 56.7307 92.7881V97.4183H46.4142V92.7881C46.4142 91.1635 45.1281 89.8367 43.517 89.7555V61.7846C45.1416 61.7033 46.4142 60.3765 46.4142 58.7519V54.1217H56.7172V58.7519C56.7172 60.3765 57.9898 61.7169 59.6144 61.7846H59.628ZM58.9104 55.7869V54.1081H71.4472V55.7734L58.9104 55.7869ZM86.8272 61.7846V89.7555C85.2025 89.8367 83.9299 91.1635 83.9299 92.7881V97.4183H73.6134V92.7881C73.6134 91.1635 72.3273 89.8367 70.7162 89.7555V61.7846C72.3408 61.7033 73.6134 60.3765 73.6134 58.7519V54.1217H83.9164V58.7519C83.9164 60.3765 85.189 61.7169 86.8136 61.7846H86.8272ZM86.1096 55.7869V54.1081H98.6464V55.7734L86.1096 55.7869ZM98.6464 95.7531V97.4183H86.0961V95.7531H98.6464ZM71.4472 95.7531V97.4183H58.8969V95.7531H71.4472ZM60.6975 59.6319H59.7498C59.276 59.6319 58.8834 59.2393 58.8834 58.7654V57.9802H71.4202V58.7654C71.4202 59.2393 71.0275 59.6319 70.5537 59.6319H60.6975ZM68.5364 61.7981V89.7284H61.7942V61.7981H68.5364ZM60.6975 91.9081H70.5537C71.0275 91.9081 71.4202 92.3007 71.4202 92.7746V93.5598H58.8969V92.7746C58.8969 92.3007 59.2895 91.9081 59.7634 91.9081H60.6975ZM44.2345 95.7531V97.4183H31.6977V95.7531H44.2345ZM31.6977 58.779V57.9667H44.2345V58.7519C44.2345 59.2258 43.8419 59.6184 43.368 59.6184H32.5371C32.0633 59.6048 31.6842 59.2122 31.6842 58.7384V58.779H31.6977ZM41.3372 61.8252V89.7419H34.595V61.7981L41.3372 61.8252ZM31.6977 92.8017C31.6977 92.3143 32.0903 91.9352 32.5642 91.9352H43.368C43.8554 91.9352 44.2345 92.3278 44.2345 92.8017V93.5869H31.6977V92.8017ZM100.745 100.722V102.847H29.5857V100.722C29.5857 100.099 30.0866 99.5981 30.7094 99.5981H99.6212C100.23 99.5981 100.731 100.085 100.745 100.695V100.722ZM98.6329 92.8017V93.5869H86.0961V92.8017C86.0961 92.3143 86.4887 91.9352 86.9626 91.9352H97.78C98.2403 91.9487 98.6193 92.3143 98.6329 92.7881V92.8017ZM88.9934 89.7555V61.7981H95.7356V89.7284L88.9934 89.7555ZM98.6329 58.779C98.6329 59.2528 98.2403 59.6455 97.7664 59.6455H86.9761C86.5022 59.6455 86.1096 59.2528 86.1096 58.779V57.9667H98.6464L98.6329 58.779ZM65.1653 27.3016L97.5498 44.3197H32.7808L65.1653 27.3016ZM29.5857 47.596C29.5857 47.0003 30.0731 46.5129 30.6688 46.5129H99.6618C100.258 46.5129 100.745 47.0003 100.745 47.596V50.8859C100.745 51.4816 100.258 51.969 99.6618 51.969H30.6688C30.0731 51.969 29.5857 51.4816 29.5857 50.8859V47.596Z" fill="#8DBF88"/>
</svg>
