<svg width="130" height="130" viewBox="0 0 130 130" fill="none" xmlns="http://www.w3.org/2000/svg">
<circle cx="65" cy="65" r="63.5" fill="white" stroke="#8DBF88" stroke-width="3"/>
<path d="M107.733 62.1659H88.2753V58.3999C88.2753 57.8483 87.971 57.3538 87.4955 57.0685L66.6491 45.3709V39.4175H70.7765V41.6809C70.7765 42.5178 71.4613 43.2026 72.2981 43.2026H84.7185C85.5554 43.2026 86.2401 42.5178 86.2401 41.6809C86.2401 41.5097 86.2021 41.3386 86.145 41.1674L84.9087 37.6106L86.1641 34.1488C86.4494 33.35 86.0499 32.4941 85.2511 32.2087C85.0799 32.1517 84.9087 32.1136 84.7375 32.1136H79.0694V29.9073C79.0694 29.0704 78.3847 28.3856 77.5478 28.3856H66.6491V26.5216C66.6491 25.6847 65.9643 25 65.1274 25C64.2905 25 63.6058 25.6847 63.6058 26.5216V45.3709L42.7594 57.0685C42.2839 57.3348 41.9796 57.8483 41.9796 58.3999V62.1659H22.5216C21.6847 62.1659 21 62.8507 21 63.6876V103.497C21 104.334 21.6847 105.019 22.5216 105.019H107.733C108.57 105.019 109.255 104.334 109.255 103.497V63.6876C109.255 62.8507 108.57 62.1659 107.733 62.1659ZM79.0884 37.8959L79.0314 37.8388V35.214H82.4931L81.8654 37.1541C81.7323 37.4964 81.7323 37.8578 81.8654 38.2002L82.5882 40.1403H73.8198V39.3985H77.5668C78.4037 39.4175 79.0884 38.7328 79.0884 37.8959ZM66.6491 31.4289H76.0452V33.6923V36.3742H66.6491V31.4289ZM41.9796 101.957H24.0433V65.2092H41.9796V101.957ZM63.6058 101.957H55.6172V84.572H63.6058V101.957ZM74.6377 101.957H66.6491V84.572H74.6377V101.957ZM85.2891 101.957H77.6809V83.0504C77.6809 82.2135 76.9962 81.5288 76.1593 81.5288H54.0956C53.2587 81.5288 52.5739 82.2135 52.5739 83.0504V101.957H44.9658V59.3509L65.1274 48.0147L85.2321 59.3129L85.2891 63.6876V101.957ZM106.212 101.957H88.2753V65.2092H106.212V101.957ZM65.1274 52.6557C61.6087 52.6557 58.7556 55.5278 58.7556 59.0466C58.7556 62.5654 61.6277 65.4184 65.1465 65.3994C68.6652 65.3804 71.5183 62.5273 71.4993 59.0085C71.4993 55.5088 68.6462 52.6557 65.1274 52.6557ZM65.1274 62.3752C63.2825 62.3752 61.7989 60.8726 61.8179 59.0276C61.8179 57.2016 63.3015 55.718 65.1274 55.718C66.9724 55.718 68.456 57.2206 68.456 59.0656H68.475C68.475 60.8916 66.9724 62.3752 65.1274 62.3752ZM27.7142 68.5568H30.7575V74.6434H27.7142V68.5568ZM35.2083 68.5568H38.2515V74.6434H35.2083V68.5568ZM49.5877 68.5568H55.6743V71.6001H49.5877V68.5568ZM62.0842 68.5568H68.1707V71.6001H62.0842V68.5568ZM74.5806 68.5568H80.6671V71.6001H74.5806V68.5568ZM49.5877 75.6514H55.6743V78.6947H49.5877V75.6514ZM62.0842 75.6514H68.1707V78.6947H62.0842V75.6514ZM74.5806 75.6514H80.6671V78.6947H74.5806V75.6514ZM27.7142 80.5397H30.7575V86.6262H27.7142V80.5397ZM35.2083 80.5397H38.2515V86.6262H35.2083V80.5397ZM27.7142 92.5226H30.7575V98.6091H27.7142V92.5226ZM35.2083 92.5226H38.2515V98.6091H35.2083V92.5226ZM92.0033 68.5568H95.0466V74.6434H92.0033V68.5568ZM99.4974 68.5568H102.541V74.6434H99.4974V68.5568ZM92.0033 80.5397H95.0466V86.6262H92.0033V80.5397ZM99.4974 80.5397H102.541V86.6262H99.4974V80.5397ZM92.0033 92.5226H95.0466V98.6091H92.0033V92.5226ZM99.4974 92.5226H102.541V98.6091H99.4974V92.5226Z" fill="#8DBF88"/>
</svg>
